<?xml version="1.0" encoding="UTF-8" standalone="no"?>
<!-- Created with Inkscape (http://www.inkscape.org/) -->

<svg
   xmlns:dc="http://purl.org/dc/elements/1.1/"
   xmlns:cc="http://creativecommons.org/ns#"
   xmlns:rdf="http://www.w3.org/1999/02/22-rdf-syntax-ns#"
   xmlns:svg="http://www.w3.org/2000/svg"
   xmlns="http://www.w3.org/2000/svg"
   xmlns:sodipodi="http://sodipodi.sourceforge.net/DTD/sodipodi-0.dtd"
   xmlns:inkscape="http://www.inkscape.org/namespaces/inkscape"
   width="620"
   height="160"
   viewBox="0 0 620.00001 160"
   id="svg2"
   version="1.1"
   inkscape:version="0.91 r13725"
   sodipodi:docname="cielę.svg">
  <defs
     id="defs4" />
  <sodipodi:namedview
     id="base"
     pagecolor="#ffffff"
     bordercolor="#666666"
     borderopacity="1.0"
     inkscape:pageopacity="0.0"
     inkscape:pageshadow="2"
     inkscape:zoom="0.35"
     inkscape:cx="-296.30442"
     inkscape:cy="-538.05572"
     inkscape:document-units="px"
     inkscape:current-layer="layer1"
     showgrid="false"
     inkscape:window-width="1920"
     inkscape:window-height="1018"
     inkscape:window-x="-8"
     inkscape:window-y="-8"
     inkscape:window-maximized="1"
     units="px"
     showguides="true"
     inkscape:guide-bbox="true" />
  <metadata
     id="metadata7">
    <rdf:RDF>
      <cc:Work
         rdf:about="">
        <dc:format>image/svg+xml</dc:format>
        <dc:type
           rdf:resource="http://purl.org/dc/dcmitype/StillImage" />
        <dc:title />
      </cc:Work>
    </rdf:RDF>
  </metadata>
  <g
     inkscape:label="Layer 1"
     inkscape:groupmode="layer"
     id="layer1"
     transform="translate(0,-892.36216)">
    <g
       transform="scale(0.91044342,1.0983659)"
       style="font-style:normal;font-weight:normal;font-size:160.2893219px;line-height:125%;font-family:sans-serif;letter-spacing:0px;word-spacing:0px;fill:#000000;fill-opacity:1;stroke:none;stroke-width:1px;stroke-linecap:butt;stroke-linejoin:miter;stroke-opacity:1"
       id="use4879">
      <path
         d="m 49.628169,862.11349 0,25.6463 q 0,6.57186 4.327812,10.09822 4.488101,3.52637 11.540831,3.52637 7.213019,0 10.418806,-2.24405 3.205786,-2.24405 5.289547,-6.57186 2.244051,-4.32782 5.770416,-4.32782 l 34.622489,0 q 1.44261,0 2.40434,1.12203 1.12203,0.96174 1.12203,2.40434 0,14.90691 -14.10546,27.24918 -7.05273,6.091 -18.753851,9.93794 -11.701121,3.68666 -27.569764,3.68666 -15.868643,0 -29.012367,-4.80868 -12.983435,-4.96897 -21.15819,-16.02894 -8.1747559,-11.22025 -8.1747559,-27.40947 l 0,-18.91414 q 0,-16.18922 8.1747559,-27.40947 15.387774,-20.83762 51.452872,-20.83762 14.586328,0 26.287449,3.84695 11.701121,3.68665 18.753851,9.77765 14.10546,12.34227 14.10546,27.24918 0,1.44261 -1.12203,2.56463 -0.96173,0.96174 -2.40434,0.96174 l -34.622489,0 q -3.526365,0 -5.770416,-4.32782 -2.083761,-4.32781 -5.289547,-6.57186 -3.205787,-2.24405 -10.418806,-2.24405 -7.05273,0 -11.540831,3.52637 -4.327812,3.52636 -4.327812,10.09822 z"
         style="font-style:normal;font-variant:normal;font-weight:normal;font-stretch:normal;font-size:160.2893219px;line-height:125%;font-family:'Rubik Mono One';-inkscape-font-specification:'Rubik Mono One, Normal';text-align:start;writing-mode:lr-tb;text-anchor:start"
         id="path4136" />
      <path
         d="m 251.36981,851.69469 -29.01237,0 0,46.4839 29.01237,0 q 1.76318,0 3.04549,1.28232 1.28232,1.28231 1.28232,3.04549 l 0,24.20369 q 0,1.76318 -1.28232,3.0455 -1.28231,1.28231 -3.04549,1.28231 l -101.62343,0 q -1.76319,0 -3.0455,-1.28231 -1.28232,-1.28232 -1.28232,-3.0455 l 0,-24.20369 q 0,-1.76318 1.28232,-3.04549 1.28231,-1.28232 3.0455,-1.28232 l 29.33294,0 0,-46.4839 -29.33294,0 q -1.76319,0 -3.0455,-1.28232 -1.28232,-1.28231 -1.28232,-3.04549 l 0,-24.20369 q 0,-1.76318 1.28232,-3.0455 1.28231,-1.28231 3.0455,-1.28231 l 101.62343,0 q 1.76318,0 3.04549,1.28231 1.28232,1.28232 1.28232,3.0455 l 0,24.20369 q 0,1.76318 -1.28232,3.04549 -1.28231,1.28232 -3.04549,1.28232 z"
         style="font-style:normal;font-variant:normal;font-weight:normal;font-stretch:normal;font-size:160.2893219px;line-height:125%;font-family:'Rubik Mono One';-inkscape-font-specification:'Rubik Mono One, Normal';text-align:start;writing-mode:lr-tb;text-anchor:start"
         id="path4138" />
      <path
         d="m 324.7197,899.78149 63.95543,0 q 1.76319,0 3.0455,1.28231 1.28232,1.28231 1.28232,3.0455 l 0,22.60079 q 0,1.76318 -1.28232,3.0455 -1.28231,1.28231 -3.0455,1.28231 l -101.30285,0 q -1.76318,0 -3.04549,-1.28231 -1.28232,-1.28232 -1.28232,-3.0455 l 0,-103.5469 q 0,-1.76318 1.28232,-3.0455 1.28231,-1.28231 3.04549,-1.28231 l 99.69996,0 q 1.76318,0 3.0455,1.28231 1.28231,1.28232 1.28231,3.0455 l 0,22.60079 q 0,1.76319 -1.28231,3.0455 -1.28232,1.28232 -3.0455,1.28232 l -62.35254,0 0,10.09822 53.53663,0 q 1.76318,0 3.0455,1.28232 1.28231,1.28231 1.28231,3.04549 l 0,20.83762 q 0,1.76318 -1.28231,3.04549 -1.28232,1.28232 -3.0455,1.28232 l -53.53663,0 0,10.09823 z"
         style="font-style:normal;font-variant:normal;font-weight:normal;font-stretch:normal;font-size:160.2893219px;line-height:125%;font-family:'Rubik Mono One';-inkscape-font-specification:'Rubik Mono One, Normal';text-align:start;writing-mode:lr-tb;text-anchor:start"
         id="path4140" />
      <path
         d="m 470.52037,898.17859 54.65866,0 q 1.76318,0 3.0455,1.28232 1.28231,1.28231 1.28231,3.04549 l 0,24.20369 q 0,1.76318 -1.28231,3.0455 -1.28232,1.28231 -3.0455,1.28231 l -93.60896,0 q -1.76318,0 -3.0455,-1.28231 -1.28231,-1.28232 -1.28231,-3.0455 l 0,-103.5469 q 0,-1.76318 1.28231,-3.0455 1.28232,-1.28231 3.0455,-1.28231 l 34.62249,0 q 1.76318,0 3.0455,1.28231 1.28231,1.28232 1.28231,3.0455 l 0,75.0154 z"
         style="font-style:normal;font-variant:normal;font-weight:normal;font-stretch:normal;font-size:160.2893219px;line-height:125%;font-family:'Rubik Mono One';-inkscape-font-specification:'Rubik Mono One, Normal';text-align:start;writing-mode:lr-tb;text-anchor:start"
         id="path4142" />
      <path
         d="m 597.0863,899.78149 63.95544,0 q 1.76318,0 3.0455,1.28231 1.28231,1.28231 1.28231,3.0455 l 0,22.60079 q 0,1.76318 -1.28231,3.0455 -1.28232,1.28231 -3.0455,1.28231 l -1.12202,0 q -6.89244,0 -6.89244,4.16753 0,4.16752 6.89244,4.16752 l 1.12202,0 q 4.32781,0 4.32781,4.00723 l 0,6.57186 q 0,1.76319 -1.28231,2.72492 -1.12203,1.12203 -3.0455,1.12203 l -2.24405,0 q -24.36398,0 -24.36398,-18.59356 0,-2.88521 0.32058,-4.16753 l -75.0154,0 q -1.76318,0 -3.0455,-1.28231 -1.28231,-1.28232 -1.28231,-3.0455 l 0,-103.5469 q 0,-1.76318 1.28231,-3.0455 1.28232,-1.28231 3.0455,-1.28231 l 99.69996,0 q 1.76318,0 3.0455,1.28231 1.28231,1.28232 1.28231,3.0455 l 0,22.60079 q 0,1.76319 -1.28231,3.0455 -1.28232,1.28232 -3.0455,1.28232 l -62.35255,0 0,10.09822 53.53664,0 q 1.76318,0 3.04549,1.28232 1.28232,1.28231 1.28232,3.04549 l 0,20.83762 q 0,1.76318 -1.28232,3.04549 -1.28231,1.28232 -3.04549,1.28232 l -53.53664,0 0,10.09823 z"
         style="font-style:normal;font-variant:normal;font-weight:normal;font-stretch:normal;font-size:160.2893219px;line-height:125%;font-family:'Rubik Mono One';-inkscape-font-specification:'Rubik Mono One, Normal';text-align:start;writing-mode:lr-tb;text-anchor:start"
         id="path4144" />
    </g>
  </g>
</svg>
