<?xml version="1.0" encoding="UTF-8" standalone="no"?>
<!-- Created with Inkscape (http://www.inkscape.org/) -->
<svg id="svg38702" xmlns:rdf="http://www.w3.org/1999/02/22-rdf-syntax-ns#" xmlns="http://www.w3.org/2000/svg" height="197.56mm" viewBox="0 0 1000 700" width="282.22mm" version="1.1" xmlns:cc="http://creativecommons.org/ns#" xmlns:dc="http://purl.org/dc/elements/1.1/">
 <metadata id="metadata38707">
  <rdf:RDF>
   <cc:Work rdf:about="">
    <dc:format>image/svg+xml</dc:format>
    <dc:type rdf:resource="http://purl.org/dc/dcmitype/StillImage"/>
    <dc:title/>
   </cc:Work>
  </rdf:RDF>
 </metadata>
 <g fill-rule="evenodd">
  <rect id="rect15049" style="color-rendering:auto;color:#000000;isolation:auto;mix-blend-mode:normal;shape-rendering:auto;solid-color:#000000;image-rendering:auto" height="700" width="1e3" y="-.019049" x="-.060024" fill="#fff"/>
  <g id="g38165" transform="matrix(.89926 0 0 .89926 -1410.3 -1505.4)">
   <g id="g14282" transform="matrix(1.0962,1.6003,-1.6003,1.0962,3251.5,-2803.9)">
    <path id="path14029" fill="#ffe537" d="m1606.6 1888.2c9.2415-0.379 6.232 25.296 0.4399 38.544-6.1004-12.731-8.5535-38.211-0.4399-38.544z"/>
    <circle id="circle14031" style="color-rendering:auto;color:#000000;isolation:auto;mix-blend-mode:normal;shape-rendering:auto;solid-color:#000000;image-rendering:auto" transform="scale(1,-1)" cy="-1926.3" cx="1607.8" r="6.718" fill="#60a8ff"/>
    <path id="path14021" fill="#ffabe1" d="m1606.6 1964.3c9.2416 0.379 6.232-25.296 0.44-38.544-6.1005 12.731-8.5536 38.211-0.44 38.544z"/>
    <circle id="circle14023" style="color-rendering:auto;color:#000000;isolation:auto;mix-blend-mode:normal;shape-rendering:auto;solid-color:#000000;image-rendering:auto" cy="1926.3" cx="1607.8" r="6.718" fill="#60a8ff"/>
   </g>
   <g id="g14237" transform="matrix(1.2758 -.18095 .18095 1.2758 -921.03 -298.68)">
    <circle id="circle14208" style="color-rendering:auto;color:#000000;isolation:auto;mix-blend-mode:normal;shape-rendering:auto;solid-color:#000000;image-rendering:auto" transform="scale(1,-1)" cy="-1925.6" cx="1795.5" r="6.718" fill="#60a8ff"/>
    <g id="g15" fill="#ff7c21">
     <path id="path14077" d="m1822.8 1863.1c25.47 11.222-2.4339 49.268-28.381 63.469-6.8505-28.594 6.0202-73.321 28.381-63.469z"/>
     <path id="path14079" d="m1770.1 1861.7c25.87-10.265 33.384 36.315 25.286 64.764-25.175-15.191-47.998-55.752-25.286-64.764z"/>
     <path id="path14083" d="m1859.3 1903.2c9.2439 26.252-37.595 31.936-65.705 22.73 16.165-24.561 57.589-45.778 65.705-22.73z"/>
    </g>
    <circle id="circle14085" style="color-rendering:auto;color:#000000;isolation:auto;mix-blend-mode:normal;shape-rendering:auto;solid-color:#000000;image-rendering:auto" transform="scale(1,-1)" cy="-1925.6" cx="1795.5" r="6.718" fill="#60a8ff"/>
    <path id="path14138" fill="#ff7c21" d="m1731.2 1900.5c9.9337-25.999 49.328-0.033 64.809 25.172-28.215 8.272-73.53-2.3457-64.809-25.172z"/>
    <circle id="circle14140" style="color-rendering:auto;color:#000000;isolation:auto;mix-blend-mode:normal;shape-rendering:auto;solid-color:#000000;image-rendering:auto" transform="scale(1,-1)" cy="-1925.6" cx="1795.5" r="6.718" fill="#60a8ff"/>
    <g id="g23" fill="#ffe537">
     <path id="path14172" d="m1758.7 1913.7c2.5632-8.8871 25.969 2.0879 36.705 11.772-14.007 1.761-38.955-3.97-36.705-11.772z"/>
     <path id="path14174" d="m1829.6 1910.6c3.8721 8.3998-21.012 15.402-35.468 15.095 9.4458-10.492 32.068-22.47 35.468-15.095z"/>
     <path id="path14176" d="m1810.5 1891c8.525 3.5882-5.1201 25.544-15.997 35.07-0.1056-14.117 8.5127-38.22 15.997-35.07z"/>
     <path id="path14178" d="m1778.7 1891.1c8.2569-4.168 16.138 20.452 16.345 34.91-10.821-9.0673-23.594-31.25-16.345-34.91z"/>
    </g>
    <circle id="circle14180" style="color-rendering:auto;color:#000000;isolation:auto;mix-blend-mode:normal;shape-rendering:auto;solid-color:#000000;image-rendering:auto" transform="scale(1,-1)" cy="-1925.6" cx="1795.5" r="6.718" fill="#60a8ff"/>
    <path id="path14186" fill="#ffae0d" d="m1774.3 1875.9c15.869-6.8137 23.974 29.185 20.787 50.656-17.219-12.664-34.719-44.674-20.787-50.656z"/>
    <path id="path14188" fill="#ffe537" d="m1780.4 1890.6c8.4628-3.7324 15.051 21.265 14.505 35.713-10.334-9.6185-21.935-32.436-14.505-35.713z"/>
    <path id="path14192" fill="#ffae0d" d="m1745.6 1904.5c6.717-15.91 37.51 4.4223 50.093 22.109-21.19 2.805-55.99-8.1402-50.093-22.109z"/>
    <path id="path14194" fill="#ffe537" d="m1760.1 1910.8c3.5137-8.5559 25.588 4.8972 35.208 15.691-14.116 0.2287-38.293-8.1792-35.208-15.691z"/>
    <path id="path14198" fill="#ffae0d" d="m1818.4 1876.7c15.682 7.2332-5.6453 37.345-23.733 49.344-2.1114-21.27 9.9649-55.694 23.733-49.344z"/>
    <path id="path14200" fill="#ffe537" d="m1811.6 1891.1c8.4365 3.7913-5.7305 25.414-16.833 34.677 0.2326-14.116 9.4258-38.006 16.833-34.677z"/>
    <circle id="circle14202" style="color-rendering:auto;color:#000000;isolation:auto;mix-blend-mode:normal;shape-rendering:auto;solid-color:#000000;image-rendering:auto" transform="scale(1,-1)" cy="-1925.6" cx="1795.5" r="6.718" fill="#60a8ff"/>
    <path id="path14156" fill="#ffae0d" d="m1846.3 1907.1c6.0512 16.175-30.292 22.559-51.587 18.354 13.469-16.597 46.274-32.555 51.587-18.354z"/>
    <path id="path14158" fill="#ffe537" d="m1831.4 1912.5c3.3256 8.6308-21.957 14.023-36.363 12.79 10.099-9.8646 33.443-20.367 36.363-12.79z"/>
    <circle id="circle14160" style="color-rendering:auto;color:#000000;isolation:auto;mix-blend-mode:normal;shape-rendering:auto;solid-color:#000000;image-rendering:auto" transform="scale(1,-1)" cy="-1925.6" cx="1795.5" r="6.718" fill="#60a8ff"/>
    <g id="g40" fill="#ff298f">
     <path id="path14035" d="m1858 1953.2c11.699-25.254-34.386-35.367-63.245-28.877 13.755 25.987 52.974 51.048 63.245 28.877z"/>
     <path id="path14037" d="m1822 1988.5c25.685-10.72-1.4669-49.306-27.131-64.013-7.4101 28.454 4.5808 73.424 27.131 64.013z"/>
     <path id="path14039" d="m1730.7 1951.7c10.649 25.714 49.31-1.3317 64.087-26.955-28.433-7.4881-73.437 4.3795-64.087 26.955z"/>
     <path id="path14043" d="m1766.2 1988c25.285 11.632 35.275-34.481 28.708-63.322-25.95 13.825-50.907 53.11-28.708 63.322z"/>
    </g>
    <circle id="circle14045" style="color-rendering:auto;color:#000000;isolation:auto;mix-blend-mode:normal;shape-rendering:auto;solid-color:#000000;image-rendering:auto" cy="1925.6" cx="1795.5" r="6.718" fill="#60a8ff"/>
    <g id="g47" fill="#ff77bc">
     <path id="path14049" d="m1845.4 1947c7.0159-15.781-28.876-24.345-50.386-21.432 12.443 17.379 44.226 35.287 50.386 21.432z"/>
     <path id="path14051" d="m1816.2 1975.5c16.001-6.4979-3.9067-37.567-21.419-50.392-3.0958 21.149 7.3704 56.097 21.419 50.392z"/>
     <path id="path14053" d="m1772.8 1974.7c15.676 7.2482 24.769-28.514 22.174-50.064-17.561 12.185-35.936 43.7-22.174 50.064z"/>
     <path id="path14057" d="m1744.6 1944.6c6.0957 16.159 37.653-2.966 50.912-20.152-21.065-3.6237-56.263 5.9653-50.912 20.152z"/>
    </g>
    <circle id="circle14059" style="color-rendering:auto;color:#000000;isolation:auto;mix-blend-mode:normal;shape-rendering:auto;solid-color:#000000;image-rendering:auto" cy="1925.6" cx="1795.5" r="6.718" fill="#60a8ff"/>
    <g id="g54" fill="#ffabe1">
     <path id="path14065" d="m1758.7 1937.4c2.5632 8.8871 25.969-2.0879 36.705-11.772-14.007-1.761-38.955 3.9701-36.705 11.772z"/>
     <path id="path14067" d="m1829.6 1940.6c3.8721-8.3998-21.012-15.402-35.468-15.095 9.4459 10.492 32.068 22.47 35.468 15.095z"/>
     <path id="path14069" d="m1810.5 1960.2c8.525-3.5882-5.1201-25.544-15.997-35.07-0.1056 14.117 8.5128 38.22 15.997 35.07z"/>
     <path id="path14071" d="m1778.7 1960.1c8.2569 4.168 16.138-20.452 16.345-34.91-10.821 9.0674-23.594 31.25-16.345 34.91z"/>
    </g>
    <circle id="circle14073" style="color-rendering:auto;color:#000000;isolation:auto;mix-blend-mode:normal;shape-rendering:auto;solid-color:#000000;image-rendering:auto" cy="1925.6" cx="1795.5" r="6.718" fill="#60a8ff"/>
   </g>
   <path id="path13977" stroke-linejoin="round" d="m1857.7 1792.8-10.423 24.959 14.265 1.8617-9.5611 30.188 31.535-35.233-15.098-2.634 12.985-20.005z" stroke="#e8d500" stroke-linecap="round" stroke-width="7.7841" fill="#f8f77c"/>
  </g>
  <g id="g38105" transform="matrix(.83312 0 0 .83312 -1162.4 -1389.4)">
   <g id="g14421" transform="matrix(1.335 .25125 -.25125 1.335 -249.57 -1325.9)">
    <path id="path14382" fill="#ffe537" d="m2229.2 1893.7c9.2415-0.379 6.232 25.296 0.4399 38.544-6.1004-12.731-8.5535-38.211-0.4399-38.544z"/>
    <circle id="circle14384" style="color-rendering:auto;color:#000000;isolation:auto;mix-blend-mode:normal;shape-rendering:auto;solid-color:#000000;image-rendering:auto" transform="scale(1,-1)" cy="-1931.7" cx="2230.3" r="6.718" fill="#60a8ff"/>
    <path id="path14372" fill="#ffabe1" d="m2206.6 1962c7.1661 5.8478 20.162-16.499 23.477-30.572-12.519 6.5253-29.768 25.438-23.477 30.572z"/>
    <path id="path14374" fill="#ffabe1" d="m2250.5 1963.5c7.8613-4.8734-9.0402-24.434-21.27-32.147 2.0968 13.961 14.368 36.426 21.27 32.147z"/>
    <circle id="circle14376" style="color-rendering:auto;color:#000000;isolation:auto;mix-blend-mode:normal;shape-rendering:auto;solid-color:#000000;image-rendering:auto" cy="1931.7" cx="2230.3" r="6.718" fill="#60a8ff"/>
   </g>
   <g id="g14428" transform="matrix(.96413 -.95692 .95692 .96413 -1726.2 2275.3)">
    <path id="path14407" fill="#ffe537" d="m2376.6 1910.2c7.1662-5.8478 20.163 16.499 23.477 30.572-12.519-6.5253-29.768-25.438-23.477-30.572z"/>
    <path id="path14409" fill="#ffe537" d="m2420.5 1908.7c7.8613 4.8734-9.0402 24.434-21.27 32.147 2.0968-13.961 14.368-36.426 21.27-32.147z"/>
    <circle id="circle14411" style="color-rendering:auto;color:#000000;isolation:auto;mix-blend-mode:normal;shape-rendering:auto;solid-color:#000000;image-rendering:auto" transform="scale(1,-1)" cy="-1940.4" cx="2400.3" r="6.718" fill="#60a8ff"/>
    <path id="path14397" fill="#ffabe1" d="m2376.6 1970.7c7.1661 5.8478 20.162-16.499 23.477-30.572-12.519 6.5253-29.768 25.438-23.477 30.572z"/>
    <path id="path14399" fill="#ffabe1" d="m2420.5 1972.2c7.8613-4.8734-9.0402-24.434-21.27-32.147 2.0968 13.961 14.368 36.426 21.27 32.147z"/>
    <circle id="circle14401" style="color-rendering:auto;color:#000000;isolation:auto;mix-blend-mode:normal;shape-rendering:auto;solid-color:#000000;image-rendering:auto" cy="1940.4" cx="2400.3" r="6.718" fill="#60a8ff"/>
   </g>
   <path id="path13993" stroke-linejoin="round" d="m2341.7 1821.2c-19.578-5.4254-29.69-17.604-37.73-32.261-10.808-19.701 12.352-37.529 34.164-11.926 14.536-26.522 38.952-12.384 32.864 6.2068-5.0806 15.516-14.14 26.144-29.298 37.981z" stroke="#fa486c" stroke-linecap="round" stroke-width="8.4021" fill="#f8778f"/>
  </g>
  <g id="g38248" transform="matrix(.81259 -.20036 .20036 .81259 -1655.6 -914.56)">
   <g id="g15029" transform="matrix(1.335 -.44123 .44123 1.335 -2271.6 208.08)">
    <g id="g79" fill="#ffe537">
     <path id="path14440" d="m2205.6 2186.2c2.5632-8.8871 25.969 2.0879 36.705 11.772-14.007 1.761-38.955-3.97-36.705-11.772z"/>
     <path id="path14442" d="m2276.4 2183c3.8721 8.3998-21.012 15.402-35.468 15.095 9.4458-10.492 32.068-22.47 35.468-15.095z"/>
     <path id="path14444" d="m2257.3 2163.4c8.525 3.5882-5.1201 25.544-15.997 35.07-0.1056-14.117 8.5127-38.22 15.997-35.07z"/>
     <path id="path14446" d="m2225.6 2163.5c8.2569-4.168 16.138 20.452 16.345 34.91-10.821-9.0673-23.594-31.25-16.345-34.91z"/>
    </g>
    <circle id="circle14448" style="color-rendering:auto;color:#000000;isolation:auto;mix-blend-mode:normal;shape-rendering:auto;solid-color:#000000;image-rendering:auto" transform="scale(1,-1)" cy="-2198" cx="2242.3" r="6.718" fill="#60a8ff"/>
    <g id="g14452" transform="matrix(.93073 -.36571 .36571 .93073 2380.4 2703.2)">
     <path id="path14454" fill="#ffae0d" d="m54.705-574.64c17.262-0.53824 11.64 35.931 0.82172 54.749-11.395-18.084-15.977-54.276-0.82172-54.749z"/>
     <path id="path14456" fill="#ffe537" d="m55.023-558.73c9.2415-0.37893 6.232 25.296 0.43993 38.544-6.1005-12.731-8.5535-38.211-0.43993-38.544z"/>
    </g>
    <g id="g14458" transform="matrix(.41746 -.90869 .90869 .41746 2691.7 2466.5)">
     <path id="path14460" fill="#ffae0d" d="m54.705-574.64c17.262-0.53824 11.64 35.931 0.82172 54.749-11.395-18.084-15.977-54.276-0.82172-54.749z"/>
     <path id="path14462" fill="#ffe537" d="m55.023-558.73c9.2415-0.37893 6.232 25.296 0.43993 38.544-6.1005-12.731-8.5535-38.211-0.43993-38.544z"/>
    </g>
    <g id="g14464" transform="matrix(.89457 .44692 -.44692 .89457 1959.5 2638.7)">
     <path id="path14466" fill="#ffae0d" d="m54.705-574.64c17.262-0.53824 11.64 35.931 0.82172 54.749-11.395-18.084-15.977-54.276-0.82172-54.749z"/>
     <path id="path14468" fill="#ffe537" d="m55.023-558.73c9.2415-0.37893 6.232 25.296 0.43993 38.544-6.1005-12.731-8.5535-38.211-0.43993-38.544z"/>
    </g>
    <circle id="circle14470" style="color-rendering:auto;color:#000000;isolation:auto;mix-blend-mode:normal;shape-rendering:auto;solid-color:#000000;image-rendering:auto" transform="scale(1,-1)" cy="-2198" cx="2242.3" r="6.718" fill="#60a8ff"/>
    <path id="path14476" fill="#ffabe1" d="m2218.6 2228.3c7.1661 5.8478 20.162-16.499 23.477-30.572-12.519 6.5253-29.768 25.438-23.477 30.572z"/>
    <path id="path14478" fill="#ffabe1" d="m2262.5 2229.8c7.8613-4.8734-9.0402-24.434-21.27-32.147 2.0968 13.961 14.368 36.426 21.27 32.147z"/>
    <circle id="circle14480" style="color-rendering:auto;color:#000000;isolation:auto;mix-blend-mode:normal;shape-rendering:auto;solid-color:#000000;image-rendering:auto" cy="2198" cx="2242.3" r="6.718" fill="#60a8ff"/>
   </g>
   <g id="g15011" transform="matrix(1.2238 .69234 -.69234 1.2238 420.66 -2048.6)">
    <g id="g100" fill="#ffe537">
     <path id="path14519" d="m2358.3 2186.2c2.5632-8.8871 25.969 2.0879 36.705 11.772-14.007 1.761-38.955-3.97-36.705-11.772z"/>
     <path id="path14521" d="m2429.1 2183c3.8721 8.3998-21.012 15.402-35.468 15.095 9.4458-10.492 32.068-22.47 35.468-15.095z"/>
     <path id="path14523" d="m2410 2163.4c8.525 3.5882-5.1201 25.544-15.997 35.07-0.1056-14.117 8.5127-38.22 15.997-35.07z"/>
     <path id="path14525" d="m2378.3 2163.5c8.2569-4.168 16.138 20.452 16.345 34.91-10.821-9.0673-23.594-31.25-16.345-34.91z"/>
    </g>
    <circle id="circle14527" style="color-rendering:auto;color:#000000;isolation:auto;mix-blend-mode:normal;shape-rendering:auto;solid-color:#000000;image-rendering:auto" transform="scale(1,-1)" cy="-2198" cx="2395" r="6.718" fill="#60a8ff"/>
    <path id="path14533" fill="#ffae0d" d="m2373.9 2148.3c15.869-6.8137 23.974 29.185 20.787 50.656-17.219-12.664-34.719-44.674-20.787-50.656z"/>
    <path id="path14535" fill="#ffe537" d="m2380 2163c8.4628-3.7324 15.051 21.265 14.505 35.713-10.334-9.6185-21.935-32.436-14.505-35.713z"/>
    <path id="path14539" fill="#ffae0d" d="m2345.1 2176.9c6.717-15.91 37.51 4.4223 50.093 22.109-21.19 2.805-55.99-8.1402-50.093-22.109z"/>
    <path id="path14541" fill="#ffe537" d="m2359.7 2183.3c3.5137-8.5559 25.588 4.8972 35.208 15.691-14.116 0.2287-38.293-8.1792-35.208-15.691z"/>
    <path id="path14545" fill="#ffae0d" d="m2418 2149.1c15.682 7.2332-5.6453 37.345-23.733 49.344-2.1114-21.27 9.9649-55.694 23.733-49.344z"/>
    <path id="path14547" fill="#ffe537" d="m2411.2 2163.5c8.4365 3.7913-5.7305 25.414-16.833 34.677 0.2326-14.116 9.4258-38.006 16.833-34.677z"/>
    <circle id="circle14549" style="color-rendering:auto;color:#000000;isolation:auto;mix-blend-mode:normal;shape-rendering:auto;solid-color:#000000;image-rendering:auto" transform="scale(1,-1)" cy="-2198" cx="2395" r="6.718" fill="#60a8ff"/>
    <g id="g114" fill="#ffabe1">
     <path id="path14507" d="m2362.7 2219.1c4.8656 7.8661 24.443-9.0161 32.168-21.238-13.963 2.083-36.44 14.332-32.168 21.238z"/>
     <path id="path14509" d="m2425.1 2220.2c5.6082-7.3551-17.155-19.608-31.33-22.456 6.9347 12.297 26.406 28.913 31.33 22.456z"/>
     <path id="path14511" d="m2395 2236.1c9.2485 0.1259 5.5376-25.457-0.6147-38.542-5.7499 12.894-7.5049 38.431 0.6147 38.542z"/>
    </g>
    <circle id="circle14513" style="color-rendering:auto;color:#000000;isolation:auto;mix-blend-mode:normal;shape-rendering:auto;solid-color:#000000;image-rendering:auto" cy="2198" cx="2395" r="6.718" fill="#60a8ff"/>
   </g>
   <path id="path14003" stroke-linejoin="round" d="m1780.2 2203.4c-14.358-16.388-16.274-33.232-14.882-51.07 1.871-23.977 33.075-26.261 37.601 9.4763 28.577-15.136 42.158 11.889 25.802 24.916-13.651 10.872-28 15.032-48.521 16.678z" stroke="#fa486c" stroke-linecap="round" stroke-width="8.3639" fill="#f8778f"/>
  </g>
  <g id="g38304" transform="matrix(.74305 0 0 .74305 -1039.6 -1161.1)">
   <g id="g14350" transform="matrix(1.5826,0,0,1.5826,-531.53,-1363.5)">
    <g id="g123" fill="#ffe537">
     <path id="path14306" d="m1578 2135c4.8656-7.8661 24.443 9.0161 32.168 21.238-13.963-2.083-36.44-14.332-32.168-21.238z"/>
     <path id="path14308" d="m1640.3 2133.9c5.6082 7.3551-17.155 19.608-31.33 22.456 6.9347-12.297 26.406-28.913 31.33-22.456z"/>
     <path id="path14310" d="m1610.2 2118.1c9.2485-0.1259 5.5376 25.457-0.6148 38.542-5.7498-12.894-7.5048-38.431 0.6148-38.542z"/>
    </g>
    <circle id="circle14312" style="color-rendering:auto;color:#000000;isolation:auto;mix-blend-mode:normal;shape-rendering:auto;solid-color:#000000;image-rendering:auto" transform="scale(1,-1)" cy="-2156.1" cx="1610.3" r="6.718" fill="#60a8ff"/>
    <path id="path14292" fill="#ffabe1" d="m1586.5 2186.4c7.1661 5.8478 20.162-16.499 23.477-30.572-12.519 6.5253-29.768 25.438-23.477 30.572z"/>
    <path id="path14294" fill="#ffabe1" d="m1630.4 2187.9c7.8613-4.8734-9.0402-24.434-21.27-32.147 2.0968 13.961 14.368 36.426 21.27 32.147z"/>
    <circle id="circle14296" style="color-rendering:auto;color:#000000;isolation:auto;mix-blend-mode:normal;shape-rendering:auto;solid-color:#000000;image-rendering:auto" cy="2156.1" cx="1610.3" r="6.718" fill="#60a8ff"/>
   </g>
   <g id="g14359" transform="matrix(1.5826,0,0,1.5826,-568.82,-1372.5)">
    <path id="path14323" fill="#ffe537" d="m1733.2 2125.1c7.1662-5.8478 20.163 16.499 23.477 30.572-12.519-6.5253-29.768-25.438-23.477-30.572z"/>
    <path id="path14325" fill="#ffe537" d="m1777.1 2123.7c7.8613 4.8734-9.0402 24.434-21.27 32.147 2.0968-13.961 14.368-36.426 21.27-32.147z"/>
    <circle id="circle14327" style="color-rendering:auto;color:#000000;isolation:auto;mix-blend-mode:normal;shape-rendering:auto;solid-color:#000000;image-rendering:auto" transform="scale(1,-1)" cy="-2155.4" cx="1757" r="6.718" fill="#60a8ff"/>
    <g id="g136" fill="#ffabe1">
     <path id="path14333" d="m1724.7 2176.5c4.8656 7.8661 24.443-9.0161 32.168-21.238-13.963 2.083-36.44 14.332-32.168 21.238z"/>
     <path id="path14335" d="m1787 2177.6c5.6082-7.3551-17.155-19.608-31.33-22.456 6.9347 12.297 26.406 28.913 31.33 22.456z"/>
     <path id="path14337" d="m1756.9 2193.5c9.2485 0.1259 5.5376-25.457-0.6148-38.542-5.7498 12.894-7.5048 38.431 0.6148 38.542z"/>
    </g>
    <circle id="circle14339" style="color-rendering:auto;color:#000000;isolation:auto;mix-blend-mode:normal;shape-rendering:auto;solid-color:#000000;image-rendering:auto" cy="2155.4" cx="1757" r="6.718" fill="#60a8ff"/>
   </g>
   <path id="path14005" stroke-linejoin="round" d="m2098.6 1987.3 0.1866 28.734 13.553-4.222 2.9679 33.465 14.876-47.679-14.599 3.8219 4.0181-24.99z" stroke="#e8d500" stroke-linecap="round" stroke-width="9.4206" fill="#f8f77c"/>
  </g>
  <g id="g37987" transform="matrix(.83854 0 0 .83854 -1175.3 -1317.3)">
   <g id="g14978" transform="matrix(1.2702 .095635 -.095635 1.2702 -393.18 -993.37)">
    <path id="path14619" fill="#ff7c21" d="m2214.1 2352.6c25.87-10.265 33.384 36.315 25.286 64.764-25.175-15.19-47.999-55.752-25.286-64.764z"/>
    <circle id="circle14621" style="color-rendering:auto;color:#000000;isolation:auto;mix-blend-mode:normal;shape-rendering:auto;solid-color:#000000;image-rendering:auto" transform="scale(1,-1)" cy="-2416.5" cx="2239.5" r="6.718" fill="#60a8ff"/>
    <path id="path14669" fill="#ff7c21" d="m2175.2 2391.4c9.9337-25.999 49.328-0.033 64.809 25.172-28.215 8.272-73.53-2.3457-64.809-25.172z"/>
    <circle id="circle14671" style="color-rendering:auto;color:#000000;isolation:auto;mix-blend-mode:normal;shape-rendering:auto;solid-color:#000000;image-rendering:auto" transform="scale(1,-1)" cy="-2416.5" cx="2239.5" r="6.718" fill="#60a8ff"/>
    <g id="g149" fill="#ffe537">
     <path id="path14703" d="m2202.8 2404.6c2.5632-8.8871 25.969 2.0879 36.705 11.772-14.007 1.761-38.955-3.97-36.705-11.772z"/>
     <path id="path14705" d="m2273.6 2401.5c3.8721 8.3998-21.012 15.402-35.468 15.095 9.4458-10.492 32.068-22.47 35.468-15.095z"/>
     <path id="path14707" d="m2254.5 2381.8c8.525 3.5882-5.1201 25.544-15.997 35.07-0.1055-14.117 8.5128-38.22 15.997-35.07z"/>
     <path id="path14709" d="m2222.8 2381.9c8.257-4.168 16.138 20.452 16.345 34.91-10.821-9.0673-23.594-31.25-16.345-34.91z"/>
    </g>
    <circle id="circle14711" style="color-rendering:auto;color:#000000;isolation:auto;mix-blend-mode:normal;shape-rendering:auto;solid-color:#000000;image-rendering:auto" transform="scale(1,-1)" cy="-2416.5" cx="2239.5" r="6.718" fill="#60a8ff"/>
    <path id="path14717" fill="#ffae0d" d="m2218.3 2366.8c15.869-6.8137 23.974 29.185 20.787 50.656-17.219-12.664-34.719-44.674-20.787-50.656z"/>
    <path id="path14719" fill="#ffe537" d="m2224.5 2381.5c8.4628-3.7324 15.051 21.265 14.505 35.713-10.334-9.6185-21.935-32.436-14.505-35.713z"/>
    <path id="path14723" fill="#ffae0d" d="m2189.6 2395.4c6.717-15.91 37.51 4.4223 50.093 22.109-21.19 2.805-55.99-8.1402-50.093-22.109z"/>
    <path id="path14725" fill="#ffe537" d="m2204.2 2401.7c3.5137-8.5559 25.588 4.8972 35.208 15.691-14.116 0.2287-38.293-8.1792-35.208-15.691z"/>
    <path id="path14729" fill="#ffae0d" d="m2262.5 2367.6c15.682 7.2332-5.6453 37.345-23.733 49.344-2.1114-21.27 9.9649-55.694 23.733-49.344z"/>
    <path id="path14731" fill="#ffe537" d="m2255.6 2382c8.4365 3.7913-5.7305 25.414-16.833 34.677 0.2326-14.116 9.4258-38.006 16.833-34.677z"/>
    <circle id="circle14733" style="color-rendering:auto;color:#000000;isolation:auto;mix-blend-mode:normal;shape-rendering:auto;solid-color:#000000;image-rendering:auto" transform="scale(1,-1)" cy="-2416.5" cx="2239.5" r="6.718" fill="#60a8ff"/>
    <path id="path14687" fill="#ffae0d" d="m2290.4 2398c6.0512 16.175-30.292 22.559-51.587 18.354 13.469-16.597 46.274-32.555 51.587-18.354z"/>
    <path id="path14689" fill="#ffe537" d="m2275.4 2403.4c3.3256 8.6308-21.957 14.023-36.363 12.79 10.099-9.8646 33.443-20.367 36.363-12.79z"/>
    <circle id="circle14691" style="color-rendering:auto;color:#000000;isolation:auto;mix-blend-mode:normal;shape-rendering:auto;solid-color:#000000;image-rendering:auto" transform="scale(1,-1)" cy="-2416.5" cx="2239.5" r="6.718" fill="#60a8ff"/>
    <path id="path14583" fill="#ff298f" d="m2174.8 2442.6c10.649 25.714 49.31-1.3317 64.087-26.955-28.433-7.4881-73.437 4.3795-64.087 26.955z"/>
    <circle id="circle14585" style="color-rendering:auto;color:#000000;isolation:auto;mix-blend-mode:normal;shape-rendering:auto;solid-color:#000000;image-rendering:auto" cy="2416.5" cx="2239.5" r="6.718" fill="#60a8ff"/>
    <g id="g168" fill="#ff77bc">
     <path id="path14589" d="m2289.4 2437.8c7.0159-15.781-28.876-24.345-50.386-21.432 12.443 17.379 44.226 35.287 50.386 21.432z"/>
     <path id="path14591" d="m2260.3 2466.4c16.001-6.4979-3.9067-37.567-21.419-50.392-3.0958 21.149 7.3704 56.097 21.419 50.392z"/>
     <path id="path14593" d="m2216.9 2465.5c15.676 7.2482 24.769-28.514 22.174-50.064-17.561 12.185-35.936 43.7-22.174 50.064z"/>
     <path id="path14597" d="m2188.6 2435.4c6.0957 16.159 37.653-2.966 50.912-20.152-21.065-3.6237-56.263 5.9653-50.912 20.152z"/>
    </g>
    <circle id="circle14599" style="color-rendering:auto;color:#000000;isolation:auto;mix-blend-mode:normal;shape-rendering:auto;solid-color:#000000;image-rendering:auto" cy="2416.5" cx="2239.5" r="6.718" fill="#60a8ff"/>
    <g id="g175" fill="#ffabe1">
     <path id="path14605" d="m2202.8 2428.3c2.5632 8.8871 25.969-2.0879 36.705-11.772-14.007-1.761-38.955 3.9701-36.705 11.772z"/>
     <path id="path14607" d="m2273.6 2431.5c3.8721-8.3998-21.012-15.402-35.468-15.095 9.4458 10.492 32.068 22.47 35.468 15.095z"/>
     <path id="path14609" d="m2254.5 2451.1c8.525-3.5882-5.1201-25.544-15.997-35.07-0.1056 14.117 8.5128 38.22 15.997 35.07z"/>
     <path id="path14611" d="m2222.8 2451c8.2569 4.168 16.138-20.452 16.345-34.91-10.821 9.0674-23.594 31.25-16.345 34.91z"/>
    </g>
    <circle id="circle14613" style="color-rendering:auto;color:#000000;isolation:auto;mix-blend-mode:normal;shape-rendering:auto;solid-color:#000000;image-rendering:auto" cy="2416.5" cx="2239.5" r="6.718" fill="#60a8ff"/>
   </g>
   <g id="g14944" transform="matrix(1.2532 .22763 -.22763 1.2532 -79.444 -1370.8)">
    <path id="path14798" fill="#ff7c21" d="m2407.9 2361.1c25.87-10.265 33.384 36.315 25.286 64.764-25.175-15.19-47.999-55.752-25.286-64.764z"/>
    <path id="path14802" fill="#ff7c21" d="m2460.6 2362.5c25.47 11.222-2.4338 49.268-28.381 63.469-6.8505-28.594 6.0203-73.32 28.381-63.469z"/>
    <circle id="circle14804" style="color-rendering:auto;color:#000000;isolation:auto;mix-blend-mode:normal;shape-rendering:auto;solid-color:#000000;image-rendering:auto" transform="scale(1,-1)" cy="-2424.9" cx="2433.3" r="6.718" fill="#60a8ff"/>
    <path id="path14853" fill="#ff7c21" d="m2369 2399.8c9.9337-25.999 49.328-0.033 64.809 25.172-28.215 8.272-73.53-2.3457-64.809-25.172z"/>
    <circle id="circle14855" style="color-rendering:auto;color:#000000;isolation:auto;mix-blend-mode:normal;shape-rendering:auto;solid-color:#000000;image-rendering:auto" transform="scale(1,-1)" cy="-2424.9" cx="2433.3" r="6.718" fill="#60a8ff"/>
    <g id="g188" fill="#ffe537">
     <path id="path14889" d="m2396.5 2413.1c2.5632-8.8871 25.969 2.0879 36.705 11.772-14.007 1.761-38.955-3.97-36.705-11.772z"/>
     <path id="path14891" d="m2467.4 2410c3.8721 8.3998-21.012 15.402-35.468 15.095 9.4458-10.492 32.068-22.47 35.468-15.095z"/>
     <path id="path14893" d="m2448.3 2390.3c8.525 3.5882-5.1201 25.544-15.997 35.07-0.1055-14.117 8.5128-38.22 15.997-35.07z"/>
     <path id="path14895" d="m2416.5 2390.4c8.257-4.168 16.138 20.452 16.345 34.91-10.821-9.0673-23.594-31.25-16.345-34.91z"/>
    </g>
    <circle id="circle14897" style="color-rendering:auto;color:#000000;isolation:auto;mix-blend-mode:normal;shape-rendering:auto;solid-color:#000000;image-rendering:auto" transform="scale(1,-1)" cy="-2424.9" cx="2433.3" r="6.718" fill="#60a8ff"/>
    <path id="path14903" fill="#ffae0d" d="m2412.1 2375.2c15.869-6.8137 23.974 29.185 20.787 50.656-17.219-12.664-34.719-44.674-20.787-50.656z"/>
    <path id="path14905" fill="#ffe537" d="m2418.2 2389.9c8.4628-3.7324 15.051 21.265 14.505 35.713-10.334-9.6185-21.935-32.436-14.505-35.713z"/>
    <path id="path14909" fill="#ffae0d" d="m2383.4 2403.8c6.717-15.91 37.51 4.4223 50.093 22.109-21.19 2.805-55.99-8.1402-50.093-22.109z"/>
    <path id="path14911" fill="#ffe537" d="m2397.9 2410.2c3.5137-8.5559 25.588 4.8972 35.208 15.691-14.116 0.2287-38.293-8.1792-35.208-15.691z"/>
    <path id="path14915" fill="#ffae0d" d="m2456.2 2376.1c15.682 7.2332-5.6453 37.345-23.733 49.344-2.1114-21.27 9.9649-55.694 23.733-49.344z"/>
    <path id="path14917" fill="#ffe537" d="m2449.4 2390.4c8.4365 3.7913-5.7305 25.414-16.833 34.677 0.2326-14.116 9.4258-38.006 16.833-34.677z"/>
    <circle id="circle14919" style="color-rendering:auto;color:#000000;isolation:auto;mix-blend-mode:normal;shape-rendering:auto;solid-color:#000000;image-rendering:auto" transform="scale(1,-1)" cy="-2424.9" cx="2433.3" r="6.718" fill="#60a8ff"/>
    <path id="path14871" fill="#ffae0d" d="m2484.1 2406.5c6.0512 16.175-30.292 22.559-51.587 18.354 13.469-16.597 46.274-32.555 51.587-18.354z"/>
    <path id="path14873" fill="#ffe537" d="m2469.2 2411.9c3.3256 8.6308-21.957 14.023-36.363 12.79 10.099-9.8646 33.443-20.367 36.363-12.79z"/>
    <circle id="circle14875" style="color-rendering:auto;color:#000000;isolation:auto;mix-blend-mode:normal;shape-rendering:auto;solid-color:#000000;image-rendering:auto" transform="scale(1,-1)" cy="-2424.9" cx="2433.3" r="6.718" fill="#60a8ff"/>
    <path id="path14764" fill="#ff298f" d="m2368.5 2451c10.649 25.714 49.31-1.3317 64.087-26.955-28.433-7.4881-73.437 4.3795-64.087 26.955z"/>
    <circle id="circle14766" style="color-rendering:auto;color:#000000;isolation:auto;mix-blend-mode:normal;shape-rendering:auto;solid-color:#000000;image-rendering:auto" cy="2424.9" cx="2433.3" r="6.718" fill="#60a8ff"/>
    <g id="g207" fill="#ff77bc">
     <path id="path14770" d="m2483.2 2446.3c7.0159-15.781-28.876-24.345-50.386-21.432 12.443 17.379 44.226 35.287 50.386 21.432z"/>
     <path id="path14772" d="m2454 2474.8c16.001-6.4979-3.9067-37.567-21.419-50.392-3.0958 21.149 7.3704 56.097 21.419 50.392z"/>
     <path id="path14774" d="m2410.6 2474c15.676 7.2482 24.769-28.514 22.174-50.064-17.561 12.185-35.936 43.7-22.174 50.064z"/>
     <path id="path14778" d="m2382.4 2443.9c6.0957 16.159 37.653-2.966 50.912-20.152-21.065-3.6237-56.263 5.9653-50.912 20.152z"/>
    </g>
    <circle id="circle14780" style="color-rendering:auto;color:#000000;isolation:auto;mix-blend-mode:normal;shape-rendering:auto;solid-color:#000000;image-rendering:auto" cy="2424.9" cx="2433.3" r="6.718" fill="#60a8ff"/>
    <g id="g214" fill="#ffabe1">
     <path id="path14786" d="m2396.5 2436.8c2.5632 8.8871 25.969-2.0879 36.705-11.772-14.007-1.761-38.955 3.9701-36.705 11.772z"/>
     <path id="path14788" d="m2467.4 2439.9c3.8721-8.3998-21.012-15.402-35.468-15.095 9.4458 10.492 32.068 22.47 35.468 15.095z"/>
     <path id="path14790" d="m2448.3 2459.6c8.525-3.5882-5.1201-25.544-15.997-35.07-0.1056 14.117 8.5128 38.22 15.997 35.07z"/>
     <path id="path14792" d="m2416.5 2459.5c8.2569 4.168 16.138-20.452 16.345-34.91-10.821 9.0674-23.594 31.25-16.345 34.91z"/>
    </g>
    <circle id="circle14794" style="color-rendering:auto;color:#000000;isolation:auto;mix-blend-mode:normal;shape-rendering:auto;solid-color:#000000;image-rendering:auto" cy="2424.9" cx="2433.3" r="6.718" fill="#60a8ff"/>
   </g>
   <path id="path14015" stroke-linejoin="round" d="m2305.3 2232.3c-13.643-0.8925-21.935-7.4656-29.189-15.933-9.7503-11.382 3.1694-26.13 20.967-12.388 6.0728-19.25 24.066-13.333 22.516-0.3924-1.293 10.8-5.8612 18.951-14.294 28.714z" stroke="#fa486c" stroke-linecap="round" stroke-width="8.3478" fill="#f8778f"/>
  </g>
 </g>
</svg>
