<?xml version="1.0" encoding="UTF-8" standalone="no"?>
<!-- Created with Inkscape (http://www.inkscape.org/) -->
<svg id="svg18971" xmlns:rdf="http://www.w3.org/1999/02/22-rdf-syntax-ns#" xmlns="http://www.w3.org/2000/svg" height="84.667mm" viewBox="0 0 799.99998 299.99999" width="225.78mm" version="1.1" xmlns:cc="http://creativecommons.org/ns#" xmlns:dc="http://purl.org/dc/elements/1.1/">
 <metadata id="metadata18976">
  <rdf:RDF>
   <cc:Work rdf:about="">
    <dc:format>image/svg+xml</dc:format>
    <dc:type rdf:resource="http://purl.org/dc/dcmitype/StillImage"/>
    <dc:title/>
   </cc:Work>
  </rdf:RDF>
 </metadata>
 <rect id="rect15501" style="color-rendering:auto;color:#000000;isolation:auto;mix-blend-mode:normal;shape-rendering:auto;solid-color:#000000;image-rendering:auto" fill-rule="evenodd" height="300" width="800" y="-.019976" x="-.0060024" fill="#fff"/>
 <path id="path15503" d="m654.46 242.98c-53.37-73.13-161.95-168.62-261.32-127.41-122.77 50.91-160.41 95.95-248.28-22.539" stroke="#b3f1c0" stroke-width="7.4" fill="none"/>
 <g fill-rule="evenodd">
  <g id="g15751" transform="matrix(.97631 -.21637 .21637 .97631 -2239.7 -2600.2)">
   <g id="g38613" fill="#ffe537">
    <path id="path15539" d="m1916.7 3206c4.8656-7.8661 24.443 9.0161 32.168 21.238-13.963-2.083-36.44-14.332-32.168-21.238z"/>
    <path id="path15541" d="m1979.1 3204.9c5.6082 7.3551-17.155 19.608-31.33 22.456 6.9347-12.297 26.406-28.913 31.33-22.456z"/>
    <path id="path15543" d="m1949 3189.1c9.2485-0.1259 5.5376 25.457-0.6148 38.542-5.7498-12.894-7.5048-38.431 0.6148-38.542z"/>
   </g>
   <circle id="circle15545" style="color-rendering:auto;color:#000000;isolation:auto;mix-blend-mode:normal;shape-rendering:auto;solid-color:#000000;image-rendering:auto" cx="1949" transform="scale(1,-1)" cy="-3227.2" r="6.718" fill="#60a8ff"/>
   <g id="g38619" fill="#ffabe1">
    <path id="path15589" d="m1916.7 3248.3c4.8656 7.8661 24.443-9.0161 32.168-21.238-13.963 2.083-36.44 14.332-32.168 21.238z"/>
    <path id="path15591" d="m1979.1 3249.4c5.6082-7.3551-17.155-19.608-31.33-22.456 6.9347 12.297 26.406 28.913 31.33 22.456z"/>
    <path id="path15593" d="m1949 3265.2c9.2485 0.1259 5.5376-25.457-0.6147-38.542-5.7499 12.894-7.5049 38.431 0.6147 38.542z"/>
   </g>
   <circle id="circle15595" style="color-rendering:auto;color:#000000;isolation:auto;mix-blend-mode:normal;shape-rendering:auto;solid-color:#000000;image-rendering:auto" cx="1949" cy="3227.2" r="6.718" fill="#60a8ff"/>
  </g>
  <g id="g15773" transform="matrix(.68199 .73136 -.73136 .68199 1657.9 -3863.4)">
   <g id="g38626" fill="#ffe537">
    <path id="path15565" d="m2217.7 3520.7c2.5632-8.887 25.969 2.0879 36.705 11.772-14.007 1.761-38.955-3.97-36.705-11.772z"/>
    <path id="path15567" d="m2288.6 3517.6c3.8722 8.3998-21.012 15.402-35.468 15.095 9.4458-10.492 32.068-22.47 35.468-15.095z"/>
    <path id="path15569" d="m2269.5 3498c8.5249 3.5881-5.1201 25.544-15.997 35.07-0.1055-14.117 8.5128-38.22 15.997-35.07z"/>
    <path id="path15571" d="m2237.7 3498.1c8.257-4.1679 16.138 20.452 16.345 34.91-10.821-9.0673-23.594-31.25-16.345-34.91z"/>
   </g>
   <circle id="circle15573" style="color-rendering:auto;color:#000000;isolation:auto;mix-blend-mode:normal;shape-rendering:auto;solid-color:#000000;image-rendering:auto" cx="2254.5" transform="scale(1,-1)" cy="-3532.6" r="6.718" fill="#60a8ff"/>
   <path id="path15579" fill="#ffae0d" d="m2204.3 3511.1c6.7679-15.889 37.495 4.5423 50.022 22.269-21.198 2.7372-55.964-8.3193-50.022-22.269z"/>
   <path id="path15581" fill="#ffe537" d="m2218.8 3517.5c3.541-8.5446 25.572 4.9791 35.158 15.804-14.116 0.1834-38.267-8.3017-35.158-15.804z"/>
   <circle id="circle15583" style="color-rendering:auto;color:#000000;isolation:auto;mix-blend-mode:normal;shape-rendering:auto;solid-color:#000000;image-rendering:auto" cx="2254.5" transform="scale(1,-1)" cy="-3532.6" r="6.718" fill="#60a8ff"/>
   <path id="path15603" fill="#ff77bc" d="m2203.6 3551.6c6.0957 16.159 37.653-2.966 50.912-20.152-21.065-3.6237-56.263 5.9653-50.912 20.152z"/>
   <circle id="circle15605" style="color-rendering:auto;color:#000000;isolation:auto;mix-blend-mode:normal;shape-rendering:auto;solid-color:#000000;image-rendering:auto" cx="2254.5" cy="3532.6" r="6.718" fill="#60a8ff"/>
   <g id="g38638" fill="#ffabe1">
    <path id="path15611" d="m2217.7 3544.4c2.5632 8.8871 25.969-2.0879 36.705-11.772-14.007-1.761-38.955 3.9701-36.705 11.772z"/>
    <path id="path15613" d="m2288.6 3547.6c3.8721-8.3998-21.012-15.402-35.468-15.095 9.4459 10.492 32.068 22.47 35.468 15.095z"/>
    <path id="path15615" d="m2269.5 3567.2c8.525-3.5882-5.1201-25.544-15.997-35.07-0.1056 14.117 8.5128 38.22 15.997 35.07z"/>
    <path id="path15617" d="m2237.7 3567.1c8.2569 4.168 16.138-20.452 16.345-34.91-10.821 9.0674-23.594 31.25-16.345 34.91z"/>
   </g>
   <circle id="circle15619" style="color-rendering:auto;color:#000000;isolation:auto;mix-blend-mode:normal;shape-rendering:auto;solid-color:#000000;image-rendering:auto" cx="2254.5" cy="3532.6" r="6.718" fill="#60a8ff"/>
  </g>
  <g id="g15761" transform="matrix(.99185 .12742 -.12742 .99185 -1167.4 -3508.6)">
   <g id="g38646" fill="#ffe537">
    <path id="path15551" d="m2065 3368c2.5632-8.8871 25.969 2.0879 36.705 11.772-14.007 1.761-38.955-3.9701-36.705-11.772z"/>
    <path id="path15553" d="m2135.8 3364.9c3.8721 8.3998-21.012 15.402-35.468 15.095 9.4458-10.492 32.068-22.47 35.468-15.095z"/>
    <path id="path15555" d="m2116.8 3345.3c8.525 3.5882-5.1201 25.544-15.997 35.07-0.1055-14.117 8.5128-38.22 15.997-35.07z"/>
    <path id="path15557" d="m2085 3345.4c8.257-4.168 16.138 20.452 16.345 34.91-10.821-9.0674-23.594-31.25-16.345-34.91z"/>
   </g>
   <circle id="circle15559" style="color-rendering:auto;color:#000000;isolation:auto;mix-blend-mode:normal;shape-rendering:auto;solid-color:#000000;image-rendering:auto" cx="2101.8" transform="scale(1,-1)" cy="-3379.9" r="6.718" fill="#60a8ff"/>
   <g id="g38653" fill="#ffabe1">
    <path id="path15633" d="m2065 3391.7c2.5632 8.8871 25.969-2.0879 36.705-11.772-14.007-1.761-38.955 3.9701-36.705 11.772z"/>
    <path id="path15635" d="m2135.8 3394.9c3.8721-8.3998-21.012-15.402-35.468-15.095 9.4459 10.492 32.068 22.47 35.468 15.095z"/>
    <path id="path15637" d="m2116.8 3414.5c8.525-3.5882-5.1201-25.544-15.997-35.07-0.1056 14.117 8.5127 38.22 15.997 35.07z"/>
    <path id="path15639" d="m2085 3414.4c8.2569 4.168 16.138-20.452 16.345-34.91-10.821 9.0674-23.594 31.25-16.345 34.91z"/>
   </g>
   <circle id="circle15641" style="color-rendering:auto;color:#000000;isolation:auto;mix-blend-mode:normal;shape-rendering:auto;solid-color:#000000;image-rendering:auto" cx="2101.8" cy="3379.9" r="6.718" fill="#60a8ff"/>
  </g>
  <g id="g15743" transform="matrix(.9985 .054667 -.054667 .9985 -1375.1 -3e3)">
   <path id="path15529" fill="#ffe537" d="m1772.6 3044.2c7.1662-5.8478 20.163 16.499 23.477 30.572-12.519-6.5253-29.768-25.438-23.477-30.572z"/>
   <path id="path15531" fill="#ffe537" d="m1816.5 3042.7c7.8613 4.8734-9.0402 24.434-21.27 32.147 2.0968-13.961 14.368-36.426 21.27-32.147z"/>
   <circle id="circle15533" style="color-rendering:auto;color:#000000;isolation:auto;mix-blend-mode:normal;shape-rendering:auto;solid-color:#000000;image-rendering:auto" cx="1796.3" transform="scale(1,-1)" cy="-3074.4" r="6.718" fill="#60a8ff"/>
   <path id="path15647" fill="#ffabe1" d="m1772.6 3104.7c7.1661 5.8478 20.162-16.499 23.477-30.572-12.519 6.5253-29.768 25.438-23.477 30.572z"/>
   <path id="path15649" fill="#ffabe1" d="m1816.5 3106.2c7.8613-4.8734-9.0402-24.434-21.27-32.147 2.0968 13.961 14.368 36.426 21.27 32.147z"/>
   <circle id="circle15651" style="color-rendering:auto;color:#000000;isolation:auto;mix-blend-mode:normal;shape-rendering:auto;solid-color:#000000;image-rendering:auto" cx="1796.3" cy="3074.4" r="6.718" fill="#60a8ff"/>
  </g>
  <g id="g15737" transform="matrix(.79976 .60032 -.60032 .79976 604.35 -3204.2)">
   <path id="path15625" fill="#ffe537" d="m1642.5 2883.7c9.2415-0.379 6.232 25.296 0.4399 38.544-6.1004-12.731-8.5535-38.211-0.4399-38.544z"/>
   <circle id="circle15627" style="color-rendering:auto;color:#000000;isolation:auto;mix-blend-mode:normal;shape-rendering:auto;solid-color:#000000;image-rendering:auto" cx="1643.6" transform="scale(1,-1)" cy="-2921.7" r="6.718" fill="#60a8ff"/>
   <path id="path15657" fill="#ffabe1" d="m1642.5 2959.8c9.2416 0.379 6.232-25.296 0.44-38.544-6.1005 12.731-8.5536 38.211-0.44 38.544z"/>
   <circle id="circle15659" style="color-rendering:auto;color:#000000;isolation:auto;mix-blend-mode:normal;shape-rendering:auto;solid-color:#000000;image-rendering:auto" cx="1643.6" cy="2921.7" r="6.718" fill="#60a8ff"/>
  </g>
 </g>
 <g stroke-linejoin="round" fill-rule="evenodd" stroke="#e8d500" stroke-linecap="round" stroke-width="7" fill="#f8f77c">
  <path id="path18791" d="m229.61 51.78-13.208 21.799 12.523 3.306-13.24 26.707 33.75-28.894-13.152-4.1096 14.745-16.956z"/>
  <path id="path18793" d="m291 59.58-4.9772 24.998 12.9-1.1654-3.3323 29.622 21.866-38.676-13.765 0.6247 8.0743-20.969z"/>
  <path id="path18795" d="m419.92 31.18-8.8733 23.894 12.921 0.8922-7.9816 28.72 27.715-34.725-13.69-1.5632 11.293-19.426z"/>
  <path id="path18797" d="m583.1 62.38-12.565 22.176 12.614 2.9384-12.453 27.083 32.891-29.869-13.267-3.7232 14.243-17.38z"/>
 </g>
</svg>
