<?xml version="1.0" encoding="UTF-8" standalone="no"?>
<!-- Created with Inkscape (http://www.inkscape.org/) -->
<svg id="svg48116" xmlns:rdf="http://www.w3.org/1999/02/22-rdf-syntax-ns#" xmlns="http://www.w3.org/2000/svg" height="197.56mm" viewBox="0 0 799.99998 700" width="225.78mm" version="1.1" xmlns:cc="http://creativecommons.org/ns#" xmlns:xlink="http://www.w3.org/1999/xlink" xmlns:dc="http://purl.org/dc/elements/1.1/">
 <defs id="defs107806">
  <linearGradient id="linearGradient112714">
   <stop id="stop112716" stop-color="#62e17d" offset="0"/>
   <stop id="stop112718" stop-color="#b3f1c0" offset="1"/>
  </linearGradient>
  <linearGradient id="linearGradient112720" x1="331.02" xlink:href="#linearGradient112714" gradientUnits="userSpaceOnUse" x2="373.51" y1="476.33" y2="543.04"/>
  <linearGradient id="linearGradient112728" x1="276.64" xlink:href="#linearGradient112714" gradientUnits="userSpaceOnUse" x2="293.44" y1="193.06" y2="242.74"/>
 </defs>
 <metadata id="metadata48121">
  <rdf:RDF>
   <cc:Work rdf:about="">
    <dc:format>image/svg+xml</dc:format>
    <dc:type rdf:resource="http://purl.org/dc/dcmitype/StillImage"/>
    <dc:title/>
   </cc:Work>
  </rdf:RDF>
 </metadata>
 <rect id="rect17719" style="color-rendering:auto;color:#000000;isolation:auto;mix-blend-mode:normal;shape-rendering:auto;solid-color:#000000;image-rendering:auto" fill-rule="evenodd" height="700" width="800" y=".039902" x="0" fill="#fff"/>
 <g id="g33913" stroke-width="7.4" fill="none">
  <path id="path47915" stroke="url(#linearGradient112720)" d="m279 187.04c40.621 142.63-26.732 302.94 117 394"/>
  <path id="path46319" stroke="#b3f1c0" d="m394.6 580.14c8.5515 6.0779 17.207-2.0566 23.879-7.0606 62.017-46.513 81.182-148.04 56-211"/>
  <path id="path46317" stroke="url(#linearGradient112728)" d="m280 188.24c-32.689 27.706-78.395 36.451-112.21 52.69-114.62 55.053-157.7 249.05 27.285 211.06 87.657-18 156.76-43.946 238.98-78.723 77.865-32.933 181.68-8.367 247.78-69.126 36.593-33.638 76.536-147.05-2.5706-168.24-79.838-21.383-171.62 5.5931-252.82 22.267-48.816 10.024-97.633 20.048-146.45 30.073z"/>
 </g>
 <g id="g47863" transform="translate(-2558 -3113.4)">
  <g id="g47856" fill-rule="evenodd">
   <path id="path47374" d="m2615.9 3412.2c7.1662-5.8478 20.163 16.499 23.477 30.572-12.519-6.5253-29.768-25.438-23.477-30.572z" fill="#ffe537"/>
   <path id="path47376" d="m2659.8 3410.7c7.8613 4.8734-9.0402 24.434-21.27 32.147 2.0968-13.961 14.368-36.426 21.27-32.147z" fill="#ffe537"/>
   <circle id="circle47378" style="color-rendering:auto;color:#000000;isolation:auto;mix-blend-mode:normal;shape-rendering:auto;solid-color:#000000;image-rendering:auto" cx="2639.6" transform="scale(1,-1)" cy="-3442.4" r="6.718" fill="#60a8ff"/>
   <path id="path47182" d="m2638.5 3480.5c9.2416 0.379 6.232-25.296 0.44-38.544-6.1005 12.731-8.5536 38.211-0.44 38.544z" fill="#ffabe1"/>
   <circle id="circle47184" style="color-rendering:auto;color:#000000;isolation:auto;mix-blend-mode:normal;shape-rendering:auto;solid-color:#000000;image-rendering:auto" cx="2639.6" cy="3442.4" r="6.718" fill="#60a8ff"/>
  </g>
 </g>
 <g id="g33925" fill-rule="evenodd">
  <g id="g47871" transform="translate(-2563 -3177.4)">
   <g id="g107579" fill="#ffe537">
    <path id="path47352" d="m2607.3 3574c4.8656-7.8661 24.443 9.0161 32.168 21.238-13.963-2.083-36.44-14.332-32.168-21.238z"/>
    <path id="path47354" d="m2669.7 3572.9c5.6083 7.3551-17.154 19.608-31.33 22.456 6.9347-12.297 26.406-28.913 31.33-22.456z"/>
    <path id="path47356" d="m2639.5 3557.1c9.2485-0.1259 5.5376 25.457-0.6148 38.542-5.7498-12.894-7.5048-38.431 0.6148-38.542z"/>
   </g>
   <circle id="circle47358" style="color-rendering:auto;color:#000000;isolation:auto;mix-blend-mode:normal;shape-rendering:auto;solid-color:#000000;image-rendering:auto" cx="2639.6" transform="scale(1,-1)" cy="-3595.2" r="6.718" fill="#60a8ff"/>
   <path id="path47174" d="m2638.5 3633.2c9.2416 0.379 6.232-25.296 0.44-38.544-6.1005 12.731-8.5536 38.211-0.44 38.544z" fill="#ffabe1"/>
   <circle id="circle47176" style="color-rendering:auto;color:#000000;isolation:auto;mix-blend-mode:normal;shape-rendering:auto;solid-color:#000000;image-rendering:auto" cx="2639.6" cy="3595.2" r="6.718" fill="#60a8ff"/>
  </g>
  <g id="g47900" transform="translate(-2416 -3503.4)">
   <g id="g107588" fill="#ffe537">
    <path id="path47262" d="m2755.6 3888.7c2.5632-8.887 25.969 2.0879 36.705 11.772-14.007 1.761-38.955-3.97-36.705-11.772z"/>
    <path id="path47264" d="m2826.4 3885.6c3.8722 8.3998-21.012 15.402-35.468 15.095 9.4458-10.492 32.068-22.47 35.468-15.095z"/>
    <path id="path47266" d="m2807.3 3866c8.5249 3.5881-5.1201 25.544-15.997 35.07-0.1055-14.117 8.5128-38.22 15.997-35.07z"/>
    <path id="path47268" d="m2775.6 3866.1c8.257-4.1679 16.138 20.452 16.345 34.91-10.821-9.0673-23.594-31.25-16.345-34.91z"/>
   </g>
   <circle id="circle47270" style="color-rendering:auto;color:#000000;isolation:auto;mix-blend-mode:normal;shape-rendering:auto;solid-color:#000000;image-rendering:auto" cx="2792.3" transform="scale(1,-1)" cy="-3900.6" r="6.718" fill="#60a8ff"/>
   <path id="path47276" d="m2742.1 3879.1c6.7679-15.889 37.495 4.5423 50.022 22.269-21.198 2.7372-55.964-8.3193-50.022-22.269z" fill="#ffae0d"/>
   <path id="path47278" d="m2756.7 3885.5c3.541-8.5446 25.572 4.9791 35.158 15.804-14.116 0.1834-38.267-8.3017-35.158-15.804z" fill="#ffe537"/>
   <circle id="circle47280" style="color-rendering:auto;color:#000000;isolation:auto;mix-blend-mode:normal;shape-rendering:auto;solid-color:#000000;image-rendering:auto" cx="2792.3" transform="scale(1,-1)" cy="-3900.6" r="6.718" fill="#60a8ff"/>
   <path id="path47164" d="m2768.6 3930.9c7.1661 5.8478 20.162-16.499 23.477-30.572-12.519 6.5253-29.768 25.438-23.477 30.572z" fill="#ffabe1"/>
   <path id="path47166" d="m2812.5 3932.3c7.8613-4.8734-9.0402-24.434-21.27-32.147 2.0968 13.961 14.368 36.426 21.27 32.147z" fill="#ffabe1"/>
   <circle id="circle47168" style="color-rendering:auto;color:#000000;isolation:auto;mix-blend-mode:normal;shape-rendering:auto;solid-color:#000000;image-rendering:auto" cx="2792.3" cy="3900.6" r="6.718" fill="#60a8ff"/>
  </g>
  <g id="g47709" transform="matrix(.84235 0 0 .84235 -2134.9 -2491.6)">
   <g id="g107602" fill="#ffe537">
    <path id="path47340" d="m2912.7 3574c4.8656-7.8661 24.443 9.0161 32.168 21.238-13.963-2.083-36.44-14.332-32.168-21.238z"/>
    <path id="path47342" d="m2975.1 3572.9c5.6082 7.3551-17.155 19.608-31.33 22.456 6.9347-12.297 26.406-28.913 31.33-22.456z"/>
    <path id="path47344" d="m2945 3557.1c9.2485-0.1259 5.5376 25.457-0.6148 38.542-5.7498-12.894-7.5048-38.431 0.6148-38.542z"/>
   </g>
   <circle id="circle47346" style="color-rendering:auto;color:#000000;isolation:auto;mix-blend-mode:normal;shape-rendering:auto;solid-color:#000000;image-rendering:auto" cx="2945" transform="scale(1,-1)" cy="-3595.2" r="6.718" fill="#60a8ff"/>
   <g id="g107608" fill="#ffabe1">
    <path id="path47152" d="m2912.7 3616.3c4.8656 7.8661 24.443-9.0161 32.168-21.238-13.963 2.083-36.44 14.332-32.168 21.238z"/>
    <path id="path47154" d="m2975.1 3617.4c5.6082-7.3551-17.155-19.608-31.33-22.456 6.9347 12.297 26.406 28.913 31.33 22.456z"/>
    <path id="path47156" d="m2945 3633.2c9.2485 0.1259 5.5376-25.457-0.6148-38.542-5.7498 12.894-7.5048 38.431 0.6148 38.542z"/>
   </g>
   <circle id="circle47158" style="color-rendering:auto;color:#000000;isolation:auto;mix-blend-mode:normal;shape-rendering:auto;solid-color:#000000;image-rendering:auto" cx="2945" cy="3595.2" r="6.718" fill="#60a8ff"/>
  </g>
  <g id="g47730" transform="translate(-2466 -3542.4)">
   <g id="g107615" fill="#ffe537">
    <path id="path47238" d="m2908.3 3888.7c2.5632-8.887 25.969 2.0879 36.705 11.772-14.007 1.761-38.955-3.97-36.705-11.772z"/>
    <path id="path47240" d="m2979.1 3885.6c3.8722 8.3998-21.012 15.402-35.468 15.095 9.4458-10.492 32.068-22.47 35.468-15.095z"/>
    <path id="path47242" d="m2960 3866c8.5249 3.5881-5.1201 25.544-15.997 35.07-0.1055-14.117 8.5128-38.22 15.997-35.07z"/>
    <path id="path47244" d="m2928.3 3866.1c8.257-4.1679 16.138 20.452 16.345 34.91-10.821-9.0673-23.594-31.25-16.345-34.91z"/>
   </g>
   <circle id="circle47246" style="color-rendering:auto;color:#000000;isolation:auto;mix-blend-mode:normal;shape-rendering:auto;solid-color:#000000;image-rendering:auto" cx="2945" transform="scale(1,-1)" cy="-3900.6" r="6.718" fill="#60a8ff"/>
   <path id="path47252" d="m2894.8 3879.1c6.7679-15.889 37.495 4.5423 50.022 22.269-21.198 2.7372-55.964-8.3193-50.022-22.269z" fill="#ffae0d"/>
   <path id="path47254" d="m2909.4 3885.5c3.541-8.5446 25.572 4.9791 35.158 15.804-14.116 0.1834-38.267-8.3017-35.158-15.804z" fill="#ffe537"/>
   <circle id="circle47256" style="color-rendering:auto;color:#000000;isolation:auto;mix-blend-mode:normal;shape-rendering:auto;solid-color:#000000;image-rendering:auto" cx="2945" transform="scale(1,-1)" cy="-3900.6" r="6.718" fill="#60a8ff"/>
   <g id="g107625" fill="#ffabe1">
    <path id="path47140" d="m2912.7 3921.7c4.8656 7.8661 24.443-9.0161 32.168-21.238-13.963 2.083-36.44 14.332-32.168 21.238z"/>
    <path id="path47142" d="m2975.1 3922.8c5.6082-7.3551-17.155-19.608-31.33-22.456 6.9347 12.297 26.406 28.913 31.33 22.456z"/>
    <path id="path47144" d="m2945 3938.6c9.2485 0.1259 5.5376-25.457-0.6148-38.542-5.7498 12.894-7.5048 38.431 0.6148 38.542z"/>
   </g>
   <circle id="circle47146" style="color-rendering:auto;color:#000000;isolation:auto;mix-blend-mode:normal;shape-rendering:auto;solid-color:#000000;image-rendering:auto" cx="2945" cy="3900.6" r="6.718" fill="#60a8ff"/>
  </g>
  <g id="g47744" transform="translate(-2505 -3558.4)">
   <g id="g107632" fill="#ffe537">
    <path id="path47214" d="m3061 3888.7c2.5632-8.887 25.969 2.0879 36.705 11.772-14.007 1.761-38.955-3.97-36.705-11.772z"/>
    <path id="path47216" d="m3131.8 3885.6c3.8722 8.3998-21.012 15.402-35.468 15.095 9.4458-10.492 32.068-22.47 35.468-15.095z"/>
    <path id="path47218" d="m3112.8 3866c8.5249 3.5881-5.1201 25.544-15.997 35.07-0.1055-14.117 8.5128-38.22 15.997-35.07z"/>
    <path id="path47220" d="m3081 3866.1c8.257-4.1679 16.138 20.452 16.345 34.91-10.821-9.0673-23.594-31.25-16.345-34.91z"/>
   </g>
   <circle id="circle47222" style="color-rendering:auto;color:#000000;isolation:auto;mix-blend-mode:normal;shape-rendering:auto;solid-color:#000000;image-rendering:auto" cx="3097.8" transform="scale(1,-1)" cy="-3900.6" r="6.718" fill="#60a8ff"/>
   <path id="path47228" d="m3047.5 3879.1c6.7679-15.889 37.495 4.5423 50.022 22.269-21.198 2.7372-55.964-8.3193-50.022-22.269z" fill="#ffae0d"/>
   <path id="path47230" d="m3062.1 3885.5c3.541-8.5446 25.572 4.9791 35.158 15.804-14.116 0.1834-38.267-8.3017-35.158-15.804z" fill="#ffe537"/>
   <circle id="circle47232" style="color-rendering:auto;color:#000000;isolation:auto;mix-blend-mode:normal;shape-rendering:auto;solid-color:#000000;image-rendering:auto" cx="3097.8" transform="scale(1,-1)" cy="-3900.6" r="6.718" fill="#60a8ff"/>
   <g id="g107642" fill="#ffabe1">
    <path id="path47126" d="m3061 3912.4c2.5632 8.8871 25.969-2.0879 36.705-11.772-14.007-1.761-38.955 3.9701-36.705 11.772z"/>
    <path id="path47128" d="m3131.8 3915.6c3.8721-8.3998-21.012-15.402-35.468-15.095 9.4459 10.492 32.068 22.47 35.468 15.095z"/>
    <path id="path47130" d="m3112.8 3935.2c8.525-3.5882-5.1201-25.544-15.997-35.07-0.1056 14.117 8.5127 38.22 15.997 35.07z"/>
    <path id="path47132" d="m3081 3935.1c8.2569 4.168 16.138-20.452 16.345-34.91-10.821 9.0674-23.594 31.25-16.345 34.91z"/>
   </g>
   <circle id="circle47134" style="color-rendering:auto;color:#000000;isolation:auto;mix-blend-mode:normal;shape-rendering:auto;solid-color:#000000;image-rendering:auto" cx="3097.8" cy="3900.6" r="6.718" fill="#60a8ff"/>
  </g>
  <g id="g47803" transform="matrix(.86039 0 0 .86039 -2209.4 -2832.6)">
   <path id="path47364" d="m3226.7 3412.2c7.1662-5.8478 20.163 16.499 23.477 30.572-12.519-6.5253-29.768-25.438-23.477-30.572z" fill="#ffe537"/>
   <path id="path47366" d="m3270.6 3410.7c7.8613 4.8734-9.0402 24.434-21.27 32.147 2.0968-13.961 14.368-36.426 21.27-32.147z" fill="#ffe537"/>
   <circle id="circle47368" style="color-rendering:auto;color:#000000;isolation:auto;mix-blend-mode:normal;shape-rendering:auto;solid-color:#000000;image-rendering:auto" cx="3250.5" transform="scale(1,-1)" cy="-3442.4" r="6.718" fill="#60a8ff"/>
   <path id="path47104" d="m3199.6 3461.4c6.0957 16.159 37.653-2.966 50.912-20.152-21.065-3.6237-56.263 5.9653-50.912 20.152z" fill="#ff77bc"/>
   <circle id="circle47106" style="color-rendering:auto;color:#000000;isolation:auto;mix-blend-mode:normal;shape-rendering:auto;solid-color:#000000;image-rendering:auto" cx="3250.5" cy="3442.4" r="6.718" fill="#60a8ff"/>
   <g id="g107655" fill="#ffabe1">
    <path id="path47112" d="m3213.7 3454.3c2.5632 8.8871 25.969-2.0879 36.705-11.772-14.007-1.761-38.955 3.9701-36.705 11.772z"/>
    <path id="path47114" d="m3284.6 3457.4c3.8721-8.3998-21.012-15.402-35.468-15.095 9.4459 10.492 32.068 22.47 35.468 15.095z"/>
    <path id="path47116" d="m3265.5 3477.1c8.525-3.5882-5.1201-25.544-15.997-35.07-0.1056 14.117 8.5128 38.22 15.997 35.07z"/>
    <path id="path47118" d="m3233.7 3477c8.2569 4.168 16.138-20.452 16.345-34.91-10.821 9.0674-23.594 31.25-16.345 34.91z"/>
   </g>
   <circle id="circle47120" style="color-rendering:auto;color:#000000;isolation:auto;mix-blend-mode:normal;shape-rendering:auto;solid-color:#000000;image-rendering:auto" cx="3250.5" cy="3442.4" r="6.718" fill="#60a8ff"/>
  </g>
  <g id="g47790" transform="translate(-2570 -3455.4)">
   <g id="g107663" fill="#ffe537">
    <path id="path47328" d="m3218.2 3574c4.8656-7.8661 24.443 9.0161 32.168 21.238-13.963-2.083-36.44-14.332-32.168-21.238z"/>
    <path id="path47330" d="m3280.5 3572.9c5.6082 7.3551-17.155 19.608-31.33 22.456 6.9347-12.297 26.406-28.913 31.33-22.456z"/>
    <path id="path47332" d="m3250.4 3557.1c9.2485-0.1259 5.5376 25.457-0.6148 38.542-5.7498-12.894-7.5048-38.431 0.6148-38.542z"/>
   </g>
   <circle id="circle47334" style="color-rendering:auto;color:#000000;isolation:auto;mix-blend-mode:normal;shape-rendering:auto;solid-color:#000000;image-rendering:auto" cx="3250.5" transform="scale(1,-1)" cy="-3595.2" r="6.718" fill="#60a8ff"/>
   <path id="path47080" d="m3199.6 3614.1c6.0957 16.159 37.653-2.966 50.912-20.152-21.065-3.6237-56.263 5.9653-50.912 20.152z" fill="#ff77bc"/>
   <circle id="circle47082" style="color-rendering:auto;color:#000000;isolation:auto;mix-blend-mode:normal;shape-rendering:auto;solid-color:#000000;image-rendering:auto" cx="3250.5" cy="3595.2" r="6.718" fill="#60a8ff"/>
   <g id="g107671" fill="#ffabe1">
    <path id="path47088" d="m3213.7 3607c2.5632 8.8871 25.969-2.0879 36.705-11.772-14.007-1.761-38.955 3.9701-36.705 11.772z"/>
    <path id="path47090" d="m3284.6 3610.1c3.8721-8.3998-21.012-15.402-35.468-15.095 9.4459 10.492 32.068 22.47 35.468 15.095z"/>
    <path id="path47092" d="m3265.5 3629.8c8.525-3.5882-5.1201-25.544-15.997-35.07-0.1056 14.117 8.5128 38.22 15.997 35.07z"/>
    <path id="path47094" d="m3233.7 3629.7c8.2569 4.168 16.138-20.452 16.345-34.91-10.821 9.0674-23.594 31.25-16.345 34.91z"/>
   </g>
   <circle id="circle47096" style="color-rendering:auto;color:#000000;isolation:auto;mix-blend-mode:normal;shape-rendering:auto;solid-color:#000000;image-rendering:auto" cx="3250.5" cy="3595.2" r="6.718" fill="#60a8ff"/>
  </g>
  <g id="g47759" transform="translate(-2557 -3599.4)">
   <g id="g107679" fill="#ffe537">
    <path id="path47190" d="m3213.7 3888.7c2.5632-8.887 25.969 2.0879 36.705 11.772-14.007 1.761-38.955-3.97-36.705-11.772z"/>
    <path id="path47192" d="m3284.6 3885.6c3.8722 8.3998-21.012 15.402-35.468 15.095 9.4458-10.492 32.068-22.47 35.468-15.095z"/>
    <path id="path47194" d="m3265.5 3866c8.5249 3.5881-5.1201 25.544-15.997 35.07-0.1055-14.117 8.5128-38.22 15.997-35.07z"/>
    <path id="path47196" d="m3233.7 3866.1c8.257-4.1679 16.138 20.452 16.345 34.91-10.821-9.0673-23.594-31.25-16.345-34.91z"/>
   </g>
   <circle id="circle47198" style="color-rendering:auto;color:#000000;isolation:auto;mix-blend-mode:normal;shape-rendering:auto;solid-color:#000000;image-rendering:auto" cx="3250.5" transform="scale(1,-1)" cy="-3900.6" r="6.718" fill="#60a8ff"/>
   <path id="path47204" d="m3200.3 3879.1c6.7679-15.889 37.495 4.5423 50.022 22.269-21.198 2.7372-55.964-8.3193-50.022-22.269z" fill="#ffae0d"/>
   <path id="path47206" d="m3214.8 3885.5c3.541-8.5446 25.572 4.9791 35.158 15.804-14.116 0.1834-38.267-8.3017-35.158-15.804z" fill="#ffe537"/>
   <circle id="circle47208" style="color-rendering:auto;color:#000000;isolation:auto;mix-blend-mode:normal;shape-rendering:auto;solid-color:#000000;image-rendering:auto" cx="3250.5" transform="scale(1,-1)" cy="-3900.6" r="6.718" fill="#60a8ff"/>
   <path id="path47056" d="m3199.6 3919.6c6.0957 16.159 37.653-2.966 50.912-20.152-21.065-3.6237-56.263 5.9653-50.912 20.152z" fill="#ff77bc"/>
   <circle id="circle47058" style="color-rendering:auto;color:#000000;isolation:auto;mix-blend-mode:normal;shape-rendering:auto;solid-color:#000000;image-rendering:auto" cx="3250.5" cy="3900.6" r="6.718" fill="#60a8ff"/>
   <g id="g107691" fill="#ffabe1">
    <path id="path47064" d="m3213.7 3912.4c2.5632 8.8871 25.969-2.0879 36.705-11.772-14.007-1.761-38.955 3.9701-36.705 11.772z"/>
    <path id="path47066" d="m3284.6 3915.6c3.8721-8.3998-21.012-15.402-35.468-15.095 9.4459 10.492 32.068 22.47 35.468 15.095z"/>
    <path id="path47068" d="m3265.5 3935.2c8.525-3.5882-5.1201-25.544-15.997-35.07-0.1056 14.117 8.5128 38.22 15.997 35.07z"/>
    <path id="path47070" d="m3233.7 3935.1c8.2569 4.168 16.138-20.452 16.345-34.91-10.821 9.0674-23.594 31.25-16.345 34.91z"/>
   </g>
   <circle id="circle47072" style="color-rendering:auto;color:#000000;isolation:auto;mix-blend-mode:normal;shape-rendering:auto;solid-color:#000000;image-rendering:auto" cx="3250.5" cy="3900.6" r="6.718" fill="#60a8ff"/>
  </g>
  <g id="g47843" transform="matrix(.78849 0 0 .78849 -1999.7 -2375.2)">
   <path id="path47038" d="m2791.2 3251.7c9.2415-0.379 6.232 25.296 0.4399 38.544-6.1004-12.731-8.5535-38.211-0.4399-38.544z" fill="#ffe537"/>
   <circle id="circle47040" style="color-rendering:auto;color:#000000;isolation:auto;mix-blend-mode:normal;shape-rendering:auto;solid-color:#000000;image-rendering:auto" cx="2792.3" transform="scale(1,-1)" cy="-3289.7" r="6.718" fill="#60a8ff"/>
   <path id="path47020" d="m2768.6 3320c7.1661 5.8478 20.162-16.499 23.477-30.572-12.519 6.5253-29.768 25.438-23.477 30.572z" fill="#ffabe1"/>
   <path id="path47022" d="m2812.5 3321.5c7.8613-4.8734-9.0402-24.434-21.27-32.147 2.0968 13.961 14.368 36.426 21.27 32.147z" fill="#ffabe1"/>
   <circle id="circle47024" style="color-rendering:auto;color:#000000;isolation:auto;mix-blend-mode:normal;shape-rendering:auto;solid-color:#000000;image-rendering:auto" cx="2792.3" cy="3289.7" r="6.718" fill="#60a8ff"/>
  </g>
  <g id="g47719" transform="translate(-2477.4 -3239.2)">
   <g id="g107705" fill="#ffe537">
    <path id="path47300" d="m2908.3 3736c2.5632-8.8871 25.969 2.0879 36.705 11.772-14.007 1.761-38.955-3.9701-36.705-11.772z"/>
    <path id="path47302" d="m2979.1 3732.9c3.8721 8.3998-21.012 15.402-35.468 15.095 9.4458-10.492 32.068-22.47 35.468-15.095z"/>
    <path id="path47304" d="m2960 3713.3c8.525 3.5882-5.1201 25.544-15.997 35.07-0.1055-14.117 8.5128-38.22 15.997-35.07z"/>
    <path id="path47306" d="m2928.3 3713.4c8.257-4.168 16.138 20.452 16.345 34.91-10.821-9.0674-23.594-31.25-16.345-34.91z"/>
   </g>
   <circle id="circle47308" style="color-rendering:auto;color:#000000;isolation:auto;mix-blend-mode:normal;shape-rendering:auto;solid-color:#000000;image-rendering:auto" cx="2945" transform="scale(1,-1)" cy="-3747.9" r="6.718" fill="#60a8ff"/>
   <g id="g107712" fill="#ffabe1">
    <path id="path47008" d="m2912.7 3769c4.8656 7.8661 24.443-9.0161 32.168-21.238-13.963 2.083-36.44 14.332-32.168 21.238z"/>
    <path id="path47010" d="m2975.1 3770.1c5.6082-7.3551-17.155-19.608-31.33-22.456 6.9347 12.297 26.406 28.913 31.33 22.456z"/>
    <path id="path47012" d="m2945 3785.9c9.2485 0.1259 5.5376-25.457-0.6148-38.542-5.7498 12.894-7.5048 38.431 0.6148 38.542z"/>
   </g>
   <circle id="circle47014" style="color-rendering:auto;color:#000000;isolation:auto;mix-blend-mode:normal;shape-rendering:auto;solid-color:#000000;image-rendering:auto" cx="2945" cy="3747.9" r="6.718" fill="#60a8ff"/>
  </g>
  <g id="g47776" transform="translate(-2519 -3535.4)">
   <g id="g107719" fill="#ffe537">
    <path id="path47286" d="m3213.7 3736c2.5632-8.8871 25.969 2.0879 36.705 11.772-14.007 1.761-38.955-3.9701-36.705-11.772z"/>
    <path id="path47288" d="m3284.6 3732.9c3.8721 8.3998-21.012 15.402-35.468 15.095 9.4458-10.492 32.068-22.47 35.468-15.095z"/>
    <path id="path47290" d="m3265.5 3713.3c8.525 3.5882-5.1201 25.544-15.997 35.07-0.1055-14.117 8.5128-38.22 15.997-35.07z"/>
    <path id="path47292" d="m3233.7 3713.4c8.257-4.168 16.138 20.452 16.345 34.91-10.821-9.0674-23.594-31.25-16.345-34.91z"/>
   </g>
   <circle id="circle47294" style="color-rendering:auto;color:#000000;isolation:auto;mix-blend-mode:normal;shape-rendering:auto;solid-color:#000000;image-rendering:auto" cx="3250.5" transform="scale(1,-1)" cy="-3747.9" r="6.718" fill="#60a8ff"/>
   <path id="path46986" d="m3199.6 3766.8c6.0957 16.159 37.653-2.966 50.912-20.152-21.065-3.6237-56.263 5.9653-50.912 20.152z" fill="#ff77bc"/>
   <circle id="circle46988" style="color-rendering:auto;color:#000000;isolation:auto;mix-blend-mode:normal;shape-rendering:auto;solid-color:#000000;image-rendering:auto" cx="3250.5" cy="3747.9" r="6.718" fill="#60a8ff"/>
   <g id="g107728" fill="#ffabe1">
    <path id="path46994" d="m3213.7 3759.7c2.5632 8.8871 25.969-2.0879 36.705-11.772-14.007-1.761-38.955 3.9701-36.705 11.772z"/>
    <path id="path46996" d="m3284.6 3762.9c3.8721-8.3998-21.012-15.402-35.468-15.095 9.4459 10.492 32.068 22.47 35.468 15.095z"/>
    <path id="path46998" d="m3265.5 3782.5c8.525-3.5882-5.1201-25.544-15.997-35.07-0.1056 14.117 8.5128 38.22 15.997 35.07z"/>
    <path id="path47000" d="m3233.7 3782.4c8.2569 4.168 16.138-20.452 16.345-34.91-10.821 9.0674-23.594 31.25-16.345 34.91z"/>
   </g>
   <circle id="circle47002" style="color-rendering:auto;color:#000000;isolation:auto;mix-blend-mode:normal;shape-rendering:auto;solid-color:#000000;image-rendering:auto" cx="3250.5" cy="3747.9" r="6.718" fill="#60a8ff"/>
  </g>
  <g id="g47879" transform="translate(-2491 -3295.4)">
   <g id="g107736" fill="#ffe537">
    <path id="path47314" d="m2602.8 3736c2.5632-8.8871 25.969 2.0879 36.705 11.772-14.007 1.761-38.955-3.9701-36.705-11.772z"/>
    <path id="path47316" d="m2673.7 3732.9c3.8721 8.3998-21.012 15.402-35.468 15.095 9.4458-10.492 32.068-22.47 35.468-15.095z"/>
    <path id="path47318" d="m2654.6 3713.3c8.525 3.5882-5.1201 25.544-15.997 35.07-0.1055-14.117 8.5128-38.22 15.997-35.07z"/>
    <path id="path47320" d="m2622.9 3713.4c8.257-4.168 16.138 20.452 16.345 34.91-10.821-9.0674-23.594-31.25-16.345-34.91z"/>
   </g>
   <circle id="circle47322" style="color-rendering:auto;color:#000000;isolation:auto;mix-blend-mode:normal;shape-rendering:auto;solid-color:#000000;image-rendering:auto" cx="2639.6" transform="scale(1,-1)" cy="-3747.9" r="6.718" fill="#60a8ff"/>
   <path id="path46942" d="m2638.5 3785.9c9.2416 0.379 6.232-25.296 0.44-38.544-6.1005 12.731-8.5536 38.211-0.44 38.544z" fill="#ffabe1"/>
   <circle id="circle46944" style="color-rendering:auto;color:#000000;isolation:auto;mix-blend-mode:normal;shape-rendering:auto;solid-color:#000000;image-rendering:auto" cx="2639.6" cy="3747.9" r="6.718" fill="#60a8ff"/>
  </g>
  <g id="g47888" transform="translate(-2384 -3461.4)">
   <g id="g107746" fill="#ffe537">
    <path id="path46950" d="m2602.8 3888.7c2.5632-8.887 25.969 2.0879 36.705 11.772-14.007 1.761-38.955-3.97-36.705-11.772z"/>
    <path id="path46952" d="m2673.7 3885.6c3.8722 8.3998-21.012 15.402-35.468 15.095 9.4459-10.492 32.068-22.47 35.468-15.095z"/>
    <path id="path46954" d="m2654.6 3866c8.5249 3.5881-5.1201 25.544-15.997 35.07-0.1055-14.117 8.5128-38.22 15.997-35.07z"/>
    <path id="path46956" d="m2622.9 3866.1c8.257-4.1679 16.138 20.452 16.345 34.91-10.821-9.0673-23.594-31.25-16.345-34.91z"/>
   </g>
   <circle id="circle46958" style="color-rendering:auto;color:#000000;isolation:auto;mix-blend-mode:normal;shape-rendering:auto;solid-color:#000000;image-rendering:auto" cx="2639.6" transform="scale(1,-1)" cy="-3900.6" r="6.718" fill="#60a8ff"/>
   <path id="path46964" d="m2589.4 3879.1c6.7679-15.889 37.495 4.5423 50.022 22.269-21.198 2.7372-55.964-8.3193-50.022-22.269z" fill="#ffae0d"/>
   <path id="path46966" d="m2604 3885.5c3.541-8.5446 25.572 4.9791 35.158 15.804-14.116 0.1834-38.267-8.3017-35.158-15.804z" fill="#ffe537"/>
   <circle id="circle46968" style="color-rendering:auto;color:#000000;isolation:auto;mix-blend-mode:normal;shape-rendering:auto;solid-color:#000000;image-rendering:auto" cx="2639.6" transform="scale(1,-1)" cy="-3900.6" r="6.718" fill="#60a8ff"/>
   <path id="path46934" d="m2638.5 3938.7c9.2416 0.379 6.232-25.296 0.44-38.544-6.1005 12.731-8.5536 38.211-0.44 38.544z" fill="#ffabe1"/>
   <circle id="circle46936" style="color-rendering:auto;color:#000000;isolation:auto;mix-blend-mode:normal;shape-rendering:auto;solid-color:#000000;image-rendering:auto" cx="2639.6" cy="3900.6" r="6.718" fill="#60a8ff"/>
  </g>
  <g id="g47700" transform="matrix(.81174 0 0 .81174 -2094.7 -2461.7)">
   <path id="path46974" d="m2921.3 3412.2c7.1662-5.8478 20.163 16.499 23.477 30.572-12.519-6.5253-29.768-25.438-23.477-30.572z" fill="#ffe537"/>
   <path id="path46976" d="m2965.2 3410.7c7.8613 4.8734-9.0402 24.434-21.27 32.147 2.0968-13.961 14.368-36.426 21.27-32.147z" fill="#ffe537"/>
   <circle id="circle46978" style="color-rendering:auto;color:#000000;isolation:auto;mix-blend-mode:normal;shape-rendering:auto;solid-color:#000000;image-rendering:auto" cx="2945" transform="scale(1,-1)" cy="-3442.4" r="6.718" fill="#60a8ff"/>
   <g id="g107762" fill="#ffabe1">
    <path id="path46922" d="m2912.7 3463.6c4.8656 7.8661 24.443-9.0161 32.168-21.238-13.963 2.083-36.44 14.332-32.168 21.238z"/>
    <path id="path46924" d="m2975.1 3464.7c5.6082-7.3551-17.155-19.608-31.33-22.456 6.9347 12.297 26.406 28.913 31.33 22.456z"/>
    <path id="path46926" d="m2945 3480.5c9.2485 0.1259 5.5376-25.457-0.6148-38.542-5.7498 12.894-7.5048 38.431 0.6148 38.542z"/>
   </g>
   <circle id="circle46928" style="color-rendering:auto;color:#000000;isolation:auto;mix-blend-mode:normal;shape-rendering:auto;solid-color:#000000;image-rendering:auto" cx="2945" cy="3442.4" r="6.718" fill="#60a8ff"/>
  </g>
  <g id="g47835" transform="matrix(.89491 0 0 .89491 -2352.6 -2757.6)">
   <path id="path47030" d="m2943.9 3251.7c9.2415-0.379 6.232 25.296 0.4399 38.544-6.1004-12.731-8.5535-38.211-0.4399-38.544z" fill="#ffe537"/>
   <circle id="circle47032" style="color-rendering:auto;color:#000000;isolation:auto;mix-blend-mode:normal;shape-rendering:auto;solid-color:#000000;image-rendering:auto" cx="2945" transform="scale(1,-1)" cy="-3289.7" r="6.718" fill="#60a8ff"/>
   <g id="g107771" fill="#ffabe1">
    <path id="path46894" d="m2912.7 3310.9c4.8656 7.8661 24.443-9.0161 32.168-21.238-13.963 2.083-36.44 14.332-32.168 21.238z"/>
    <path id="path46896" d="m2975.1 3311.9c5.6082-7.3551-17.155-19.608-31.33-22.456 6.9347 12.297 26.406 28.913 31.33 22.456z"/>
    <path id="path46898" d="m2945 3327.8c9.2485 0.1259 5.5376-25.457-0.6148-38.542-5.7498 12.894-7.5048 38.431 0.6148 38.542z"/>
   </g>
   <circle id="circle46900" style="color-rendering:auto;color:#000000;isolation:auto;mix-blend-mode:normal;shape-rendering:auto;solid-color:#000000;image-rendering:auto" cx="2945" cy="3289.7" r="6.718" fill="#60a8ff"/>
  </g>
  <g id="g47826" transform="matrix(.83194 0 0 .83194 -2197.6 -2569.8)">
   <path id="path46914" d="m3096.6 3251.7c9.2415-0.379 6.232 25.296 0.4399 38.544-6.1004-12.731-8.5535-38.211-0.4399-38.544z" fill="#ffe537"/>
   <circle id="circle46916" style="color-rendering:auto;color:#000000;isolation:auto;mix-blend-mode:normal;shape-rendering:auto;solid-color:#000000;image-rendering:auto" cx="3097.8" transform="scale(1,-1)" cy="-3289.7" r="6.718" fill="#60a8ff"/>
   <g id="g107780" fill="#ffabe1">
    <path id="path46880" d="m3061 3301.6c2.5632 8.8871 25.969-2.0879 36.705-11.772-14.007-1.761-38.955 3.9701-36.705 11.772z"/>
    <path id="path46882" d="m3131.8 3304.7c3.8721-8.3998-21.012-15.402-35.468-15.095 9.4459 10.492 32.068 22.47 35.468 15.095z"/>
    <path id="path46884" d="m3112.8 3324.4c8.525-3.5882-5.1201-25.544-15.997-35.07-0.1056 14.117 8.5127 38.22 15.997 35.07z"/>
    <path id="path46886" d="m3081 3324.3c8.2569 4.168 16.138-20.452 16.345-34.91-10.821 9.0674-23.594 31.25-16.345 34.91z"/>
   </g>
   <circle id="circle46888" style="color-rendering:auto;color:#000000;isolation:auto;mix-blend-mode:normal;shape-rendering:auto;solid-color:#000000;image-rendering:auto" cx="3097.8" cy="3289.7" r="6.718" fill="#60a8ff"/>
  </g>
  <g id="g47815" transform="matrix(.75361 0 0 .75361 -1966.2 -2335.2)">
   <path id="path46906" d="m3249.3 3251.7c9.2415-0.379 6.232 25.296 0.4399 38.544-6.1004-12.731-8.5535-38.211-0.4399-38.544z" fill="#ffe537"/>
   <circle id="circle46908" style="color-rendering:auto;color:#000000;isolation:auto;mix-blend-mode:normal;shape-rendering:auto;solid-color:#000000;image-rendering:auto" cx="3250.5" transform="scale(1,-1)" cy="-3289.7" r="6.718" fill="#60a8ff"/>
   <path id="path46858" d="m3199.6 3308.7c6.0957 16.159 37.653-2.966 50.912-20.152-21.065-3.6237-56.263 5.9653-50.912 20.152z" fill="#ff77bc"/>
   <circle id="circle46860" style="color-rendering:auto;color:#000000;isolation:auto;mix-blend-mode:normal;shape-rendering:auto;solid-color:#000000;image-rendering:auto" cx="3250.5" cy="3289.7" r="6.718" fill="#60a8ff"/>
   <g id="g107792" fill="#ffabe1">
    <path id="path46866" d="m3213.7 3301.6c2.5632 8.8871 25.969-2.0879 36.705-11.772-14.007-1.761-38.955 3.9701-36.705 11.772z"/>
    <path id="path46868" d="m3284.6 3304.7c3.8721-8.3998-21.012-15.402-35.468-15.095 9.4459 10.492 32.068 22.47 35.468 15.095z"/>
    <path id="path46870" d="m3265.5 3324.4c8.525-3.5882-5.1201-25.544-15.997-35.07-0.1056 14.117 8.5128 38.22 15.997 35.07z"/>
    <path id="path46872" d="m3233.7 3324.3c8.2569 4.168 16.138-20.452 16.345-34.91-10.821 9.0674-23.594 31.25-16.345 34.91z"/>
   </g>
   <circle id="circle46874" style="color-rendering:auto;color:#000000;isolation:auto;mix-blend-mode:normal;shape-rendering:auto;solid-color:#000000;image-rendering:auto" cx="3250.5" cy="3289.7" r="6.718" fill="#60a8ff"/>
  </g>
  <g id="g47850" transform="matrix(.92119 0 0 .92119 -2294 -2778.1)">
   <path id="path47046" d="m2638.5 3251.7c9.2415-0.379 6.232 25.296 0.4399 38.544-6.1004-12.731-8.5535-38.211-0.4399-38.544z" fill="#ffe537"/>
   <circle id="circle47048" style="color-rendering:auto;color:#000000;isolation:auto;mix-blend-mode:normal;shape-rendering:auto;solid-color:#000000;image-rendering:auto" cx="2639.6" transform="scale(1,-1)" cy="-3289.7" r="6.718" fill="#60a8ff"/>
   <path id="path46848" d="m2638.5 3327.8c9.2416 0.379 6.232-25.296 0.44-38.544-6.1005 12.731-8.5536 38.211-0.44 38.544z" fill="#ffabe1"/>
   <circle id="circle46850" style="color-rendering:auto;color:#000000;isolation:auto;mix-blend-mode:normal;shape-rendering:auto;solid-color:#000000;image-rendering:auto" cx="2639.6" cy="3289.7" r="6.718" fill="#60a8ff"/>
  </g>
 </g>
</svg>
