<?xml version="1.0" encoding="UTF-8" standalone="no"?>
<!-- Created with Inkscape (http://www.inkscape.org/) -->
<svg id="svg23719" xmlns:rdf="http://www.w3.org/1999/02/22-rdf-syntax-ns#" xmlns="http://www.w3.org/2000/svg" height="84.667mm" viewBox="0 0 799.99998 299.99999" width="225.78mm" version="1.1" xmlns:cc="http://creativecommons.org/ns#" xmlns:dc="http://purl.org/dc/elements/1.1/">
 <metadata id="metadata23724">
  <rdf:RDF>
   <cc:Work rdf:about="">
    <dc:format>image/svg+xml</dc:format>
    <dc:type rdf:resource="http://purl.org/dc/dcmitype/StillImage"/>
    <dc:title/>
   </cc:Work>
  </rdf:RDF>
 </metadata>
 <rect id="rect13259" style="color-rendering:auto;color:#000000;isolation:auto;mix-blend-mode:normal;shape-rendering:auto;solid-color:#000000;image-rendering:auto" fill-rule="evenodd" height="300" width="800" y=".0000012207" x="0" fill="#fff"/>
 <path id="path13665" d="m744.09 300c-34.85-41.51-59.43-95.8-112.27-120.83-46.18-21.87-98.04-41.09-148.49-49.5-9.6606-1.6101-21.257-2.4558-34.357-2.5605-123.44-0.99-380.47 63.73-410.64 172.89" stroke="#b3f1c0" stroke-width="7.4" fill="none"/>
 <path id="path13667" d="m407.17 129.16c-8.8659-3.6293-7.2278-2.7598-20.124-10.453-3.6704-2.1895-7.3919-5.7468-9.9553-9.1018-3.0704-4.0188-6.1388-10.061-1.7677-14.185 19.396-18.301 38.494 32.729 33.002 34.42-4.3954 1.3536-1.862-9.4979 0.12521-13.604 5.0859-10.508 11.712-28.007 21.189-13.577 9.7332 14.821-12.173 20.026-21.952 26.173" stroke="#b3f1c0" stroke-width="7.4" fill="none"/>
 <g fill-rule="evenodd">
  <g id="g13646" transform="matrix(.98757 .15718 -.15718 .98757 882.66 -2906.4)">
   <g id="g9" fill="#ffe537">
    <path id="path13287" d="m58.309 3054.5c2.5632-8.8871 25.969 2.0879 36.705 11.772-14.007 1.761-38.955-3.9701-36.705-11.772z"/>
    <path id="path13289" d="m129.17 3051.4c3.8721 8.3998-21.012 15.402-35.468 15.095 9.4458-10.492 32.068-22.47 35.468-15.095z"/>
    <path id="path13291" d="m110.09 3031.7c8.525 3.5882-5.1201 25.544-15.997 35.07-0.10554-14.117 8.5128-38.22 15.997-35.07z"/>
    <path id="path13293" d="m78.335 3031.9c8.257-4.168 16.138 20.452 16.345 34.91-10.821-9.0674-23.594-31.25-16.345-34.91z"/>
   </g>
   <circle id="circle13295" style="color-rendering:auto;color:#000000;isolation:auto;mix-blend-mode:normal;shape-rendering:auto;solid-color:#000000;image-rendering:auto" transform="scale(1,-1)" cy="-3066.4" cx="95.085" r="6.718" fill="#60a8ff"/>
   <g id="g13299" transform="matrix(.39492 -.91871 .91871 .39492 550.97 3323.7)">
    <path id="path13301" fill="#ffae0d" d="m54.705-574.64c17.262-0.53824 11.64 35.931 0.82172 54.749-11.395-18.084-15.977-54.276-0.82172-54.749z"/>
    <path id="path13303" fill="#ffe537" d="m55.023-558.73c9.2415-0.37893 6.232 25.296 0.43993 38.544-6.1005-12.731-8.5535-38.211-0.43993-38.544z"/>
   </g>
   <g id="g13305" transform="matrix(.93165 -.36336 .36336 .93165 231.85 3571.9)">
    <path id="path13307" fill="#ffae0d" d="m54.705-574.64c17.262-0.53824 11.64 35.931 0.82172 54.749-11.395-18.084-15.977-54.276-0.82172-54.749z"/>
    <path id="path13309" fill="#ffe537" d="m55.023-558.73c9.2415-0.37893 6.232 25.296 0.43993 38.544-6.1005-12.731-8.5535-38.211-0.43993-38.544z"/>
   </g>
   <circle id="circle13311" style="color-rendering:auto;color:#000000;isolation:auto;mix-blend-mode:normal;shape-rendering:auto;solid-color:#000000;image-rendering:auto" transform="scale(1,-1)" cy="-3066.4" cx="95.085" r="6.718" fill="#60a8ff"/>
   <g id="g23" fill="#ffabe1">
    <path id="path13267" d="m58.309 3078.2c2.5632 8.8871 25.969-2.0879 36.705-11.772-14.007-1.761-38.955 3.9701-36.705 11.772z"/>
    <path id="path13269" d="m129.17 3081.4c3.8721-8.3998-21.012-15.402-35.468-15.095 9.4458 10.492 32.068 22.47 35.468 15.095z"/>
    <path id="path13271" d="m110.09 3101c8.525-3.5882-5.1201-25.544-15.997-35.07-0.10554 14.117 8.5128 38.22 15.997 35.07z"/>
    <path id="path13273" d="m78.335 3100.9c8.257 4.168 16.138-20.452 16.345-34.91-10.821 9.0674-23.594 31.25-16.345 34.91z"/>
   </g>
   <circle id="circle13275" style="color-rendering:auto;color:#000000;isolation:auto;mix-blend-mode:normal;shape-rendering:auto;solid-color:#000000;image-rendering:auto" cy="3066.4" cx="95.085" r="6.718" fill="#60a8ff"/>
  </g>
  <g id="g13573" transform="matrix(.90682 .42152 -.42152 .90682 1960.9 -2581.8)">
   <g id="g31" fill="#ffe537">
    <path id="path13389" d="m-101.48 3050.3c2.5632-8.8871 25.969 2.0879 36.705 11.772-14.007 1.761-38.955-3.9701-36.705-11.772z"/>
    <path id="path13391" d="m-30.619 3047.1c3.8721 8.3998-21.012 15.402-35.468 15.095 9.4458-10.492 32.068-22.47 35.468-15.095z"/>
    <path id="path13393" d="m-49.7 3027.5c8.525 3.5881-5.1201 25.544-15.997 35.07-0.10554-14.117 8.5128-38.22 15.997-35.07z"/>
    <path id="path13395" d="m-81.45 3027.6c8.257-4.168 16.138 20.452 16.345 34.91-10.821-9.0674-23.594-31.25-16.345-34.91z"/>
   </g>
   <circle id="circle13397" style="color-rendering:auto;color:#000000;isolation:auto;mix-blend-mode:normal;shape-rendering:auto;solid-color:#000000;image-rendering:auto" transform="scale(1,-1)" cy="-3062.1" cx="-64.701" r="6.718" fill="#60a8ff"/>
   <g id="g13401" transform="matrix(.39492 -.91871 .91871 .39492 391.18 3319.5)">
    <path id="path13403" fill="#ffae0d" d="m54.705-574.64c17.262-0.53824 11.64 35.931 0.82172 54.749-11.395-18.084-15.977-54.276-0.82172-54.749z"/>
    <path id="path13405" fill="#ffe537" d="m55.023-558.73c9.2415-0.37893 6.232 25.296 0.43993 38.544-6.1005-12.731-8.5535-38.211-0.43993-38.544z"/>
   </g>
   <g id="g13407" transform="matrix(.93165 -.36336 .36336 .93165 72.07 3567.6)">
    <path id="path13409" fill="#ffae0d" d="m54.705-574.64c17.262-0.53824 11.64 35.931 0.82172 54.749-11.395-18.084-15.977-54.276-0.82172-54.749z"/>
    <path id="path13411" fill="#ffe537" d="m55.023-558.73c9.2415-0.37893 6.232 25.296 0.43993 38.544-6.1005-12.731-8.5535-38.211-0.43993-38.544z"/>
   </g>
   <circle id="circle13413" style="color-rendering:auto;color:#000000;isolation:auto;mix-blend-mode:normal;shape-rendering:auto;solid-color:#000000;image-rendering:auto" transform="scale(1,-1)" cy="-3062.1" cx="-64.701" r="6.718" fill="#60a8ff"/>
   <g id="g45" fill="#ffabe1">
    <path id="path13377" d="m-97.007 3083.3c4.8656 7.8661 24.443-9.0161 32.168-21.238-13.963 2.083-36.44 14.332-32.168 21.238z"/>
    <path id="path13379" d="m-34.669 3084.3c5.6082-7.3551-17.155-19.608-31.33-22.456 6.9347 12.297 26.406 28.913 31.33 22.456z"/>
    <path id="path13381" d="m-64.795 3100.2c9.2484 0.1259 5.5376-25.457-0.61479-38.542-5.7499 12.894-7.5049 38.431 0.61479 38.542z"/>
   </g>
   <circle id="circle13383" style="color-rendering:auto;color:#000000;isolation:auto;mix-blend-mode:normal;shape-rendering:auto;solid-color:#000000;image-rendering:auto" cy="3062.1" cx="-64.701" r="6.718" fill="#60a8ff"/>
  </g>
  <g id="g13558" transform="matrix(.52712 .84979 -.84979 .52712 3426.3 -1175.8)">
   <g id="g52" fill="#ffe537">
    <path id="path13353" d="m-264.11 3050.3c2.5632-8.887 25.969 2.0879 36.705 11.772-14.007 1.761-38.955-3.97-36.705-11.772z"/>
    <path id="path13355" d="m-193.25 3047.2c3.8721 8.3998-21.012 15.402-35.468 15.095 9.4458-10.492 32.068-22.47 35.468-15.095z"/>
    <path id="path13357" d="m-212.33 3027.5c8.525 3.5881-5.1201 25.544-15.997 35.07-0.10554-14.117 8.5128-38.22 15.997-35.07z"/>
    <path id="path13359" d="m-244.08 3027.6c8.257-4.1679 16.138 20.452 16.345 34.91-10.821-9.0673-23.594-31.25-16.345-34.91z"/>
   </g>
   <circle id="circle13361" style="color-rendering:auto;color:#000000;isolation:auto;mix-blend-mode:normal;shape-rendering:auto;solid-color:#000000;image-rendering:auto" transform="scale(1,-1)" cy="-3062.2" cx="-227.34" r="6.718" fill="#60a8ff"/>
   <g id="g13365" transform="matrix(.42037 -.90735 .90735 .42037 487.67 3649.4)">
    <path id="path13367" fill="#ffae0d" d="m230.67-950.23c17.262-0.53824 11.64 35.931 0.82172 54.749-11.395-18.084-15.977-54.276-0.82172-54.749z"/>
    <path id="path13369" fill="#ffe537" d="m230.99-934.32c9.2415-0.37893 6.232 25.296 0.43993 38.544-6.1005-12.731-8.5535-38.211-0.43993-38.544z"/>
   </g>
   <circle id="circle13371" style="color-rendering:auto;color:#000000;isolation:auto;mix-blend-mode:normal;shape-rendering:auto;solid-color:#000000;image-rendering:auto" transform="scale(1,-1)" cy="-3062.2" cx="-227.34" r="6.718" fill="#60a8ff"/>
   <g id="g63" fill="#ffabe1">
    <path id="path13341" d="m-259.64 3083.3c4.8656 7.8661 24.443-9.0161 32.168-21.238-13.963 2.083-36.44 14.332-32.168 21.238z"/>
    <path id="path13343" d="m-197.3 3084.4c5.6082-7.3551-17.155-19.608-31.33-22.456 6.9347 12.297 26.406 28.913 31.33 22.456z"/>
    <path id="path13345" d="m-227.43 3100.2c9.2484 0.1259 5.5376-25.457-0.61479-38.542-5.7499 12.894-7.5049 38.431 0.61479 38.542z"/>
   </g>
   <circle id="circle13347" style="color-rendering:auto;color:#000000;isolation:auto;mix-blend-mode:normal;shape-rendering:auto;solid-color:#000000;image-rendering:auto" cy="3062.2" cx="-227.34" r="6.718" fill="#60a8ff"/>
  </g>
 </g>
 <g id="g13534" transform="translate(1199.4 -2918.4)">
  <g id="g13678" fill-rule="evenodd" transform="matrix(.94578 -.32482 .32482 .94578 -1039.6 -117.2)">
   <path id="path13471" fill="#ffe537" d="m-870.5 3019.9c9.2415-0.379 6.232 25.296 0.43993 38.544-6.1005-12.731-8.5535-38.211-0.43993-38.544z"/>
   <circle id="circle13473" style="color-rendering:auto;color:#000000;isolation:auto;mix-blend-mode:normal;shape-rendering:auto;solid-color:#000000;image-rendering:auto" transform="scale(1,-1)" cy="-3058" cx="-869.37" r="6.718" fill="#60a8ff"/>
   <path id="path13461" fill="#ffabe1" d="m-893.13 3088.3c7.1661 5.8478 20.163-16.499 23.477-30.572-12.519 6.5253-29.768 25.438-23.477 30.572z"/>
   <path id="path13463" fill="#ffabe1" d="m-849.2 3089.7c7.8613-4.8734-9.0402-24.434-21.27-32.147 2.0968 13.961 14.368 36.426 21.27 32.147z"/>
   <circle id="circle13465" style="color-rendering:auto;color:#000000;isolation:auto;mix-blend-mode:normal;shape-rendering:auto;solid-color:#000000;image-rendering:auto" cy="3058" cx="-869.37" r="6.718" fill="#60a8ff"/>
  </g>
 </g>
 <g id="g13541" fill-rule="evenodd" transform="matrix(.93859 -.34504 .34504 .93859 -178.25 -2942)">
  <path id="path13453" fill="#ffe537" d="m-703.64 3018.5c9.2415-0.3789 6.232 25.296 0.43993 38.544-6.1005-12.731-8.5535-38.211-0.43993-38.544z"/>
  <circle id="circle13455" style="color-rendering:auto;color:#000000;isolation:auto;mix-blend-mode:normal;shape-rendering:auto;solid-color:#000000;image-rendering:auto" transform="scale(1,-1)" cy="-3056.6" cx="-702.51" r="6.718" fill="#60a8ff"/>
  <g id="g79" fill="#ffabe1">
   <path id="path13441" d="m-734.82 3077.7c4.8656 7.8661 24.443-9.0161 32.168-21.238-13.963 2.083-36.44 14.332-32.168 21.238z"/>
   <path id="path13443" d="m-672.48 3078.8c5.6082-7.3551-17.155-19.608-31.33-22.456 6.9347 12.297 26.406 28.913 31.33 22.456z"/>
   <path id="path13445" d="m-702.6 3094.6c9.2484 0.1259 5.5376-25.457-0.61479-38.542-5.7499 12.894-7.5049 38.431 0.61479 38.542z"/>
  </g>
  <circle id="circle13447" style="color-rendering:auto;color:#000000;isolation:auto;mix-blend-mode:normal;shape-rendering:auto;solid-color:#000000;image-rendering:auto" cy="3056.6" cx="-702.51" r="6.718" fill="#60a8ff"/>
 </g>
 <g id="g13549" transform="translate(643.14 -2827.6)">
  <g id="g13669" fill-rule="evenodd" transform="matrix(.86676 -.49872 .49872 .86676 -1595.5 137.88)">
   <path id="path13433" fill="#ffe537" d="m-539.61 3018.5c9.2415-0.379 6.232 25.296 0.43993 38.544-6.1005-12.731-8.5535-38.211-0.43993-38.544z"/>
   <circle id="circle13435" style="color-rendering:auto;color:#000000;isolation:auto;mix-blend-mode:normal;shape-rendering:auto;solid-color:#000000;image-rendering:auto" transform="scale(1,-1)" cy="-3056.6" cx="-538.48" r="6.718" fill="#60a8ff"/>
   <g id="g89" fill="#ffabe1">
    <path id="path13419" d="m-575.26 3068.4c2.5632 8.8871 25.969-2.0879 36.705-11.772-14.007-1.761-38.955 3.9701-36.705 11.772z"/>
    <path id="path13421" d="m-504.4 3071.6c3.8721-8.3998-21.012-15.402-35.468-15.095 9.4458 10.492 32.068 22.47 35.468 15.095z"/>
    <path id="path13423" d="m-523.48 3091.2c8.525-3.5882-5.1201-25.544-15.997-35.07-0.10554 14.117 8.5128 38.22 15.997 35.07z"/>
    <path id="path13425" d="m-555.23 3091.1c8.257 4.168 16.138-20.452 16.345-34.91-10.821 9.0674-23.594 31.25-16.345 34.91z"/>
   </g>
   <circle id="circle13427" style="color-rendering:auto;color:#000000;isolation:auto;mix-blend-mode:normal;shape-rendering:auto;solid-color:#000000;image-rendering:auto" cy="3056.6" cx="-538.48" r="6.718" fill="#60a8ff"/>
  </g>
 </g>
 <path id="path18799" stroke-linejoin="round" d="m398.85 24.73-6.5469 24.633 12.947-0.3479-5.1976 29.352 24.266-37.217-13.777-0.2464 9.3833-20.417z" fill-rule="evenodd" stroke="#e8d500" stroke-linecap="round" stroke-width="7" fill="#f8f77c"/>
</svg>
