<?xml version="1.0" encoding="UTF-8" standalone="no"?>
<!-- Created with Inkscape (http://www.inkscape.org/) -->
<svg id="svg102882" xmlns:rdf="http://www.w3.org/1999/02/22-rdf-syntax-ns#" xmlns="http://www.w3.org/2000/svg" height="84.667mm" viewBox="0 0 799.99998 299.99999" width="225.78mm" version="1.1" xmlns:cc="http://creativecommons.org/ns#" xmlns:dc="http://purl.org/dc/elements/1.1/">
 <defs id="defs102884">
  <marker id="marker10121" refY="0.0" refX="0.0" overflow="visible" orient="auto">
   <path id="path10123" d="m0 0l5-5-17.5 5 17.5 5-5-5z" fill-rule="evenodd" transform="scale(.2) rotate(180) translate(6)" stroke="#f1f3f3" stroke-width="1pt" fill="#f1f3f3"/>
  </marker>
  <marker id="marker9985" refY="0.0" refX="0.0" overflow="visible" orient="auto">
   <path id="path9987" d="m0 0l5-5-17.5 5 17.5 5-5-5z" fill-rule="evenodd" transform="scale(.2) rotate(180) translate(6)" stroke="#f1f3f3" stroke-width="1pt" fill="#f1f3f3"/>
  </marker>
  <marker id="marker9855" refY="0.0" refX="0.0" overflow="visible" orient="auto">
   <path id="path9857" d="m0 0l5-5-17.5 5 17.5 5-5-5z" fill-rule="evenodd" transform="scale(.2) rotate(180) translate(6)" stroke="#f1f3f3" stroke-width="1pt" fill="#f1f3f3"/>
  </marker>
  <marker id="marker9731" refY="0.0" refX="0.0" overflow="visible" orient="auto">
   <path id="path9733" d="m0 0l5-5-17.5 5 17.5 5-5-5z" fill-rule="evenodd" transform="scale(.2) rotate(180) translate(6)" stroke="#f1f3f3" stroke-width="1pt" fill="#f1f3f3"/>
  </marker>
  <marker id="marker9721" refY="0.0" refX="0.0" overflow="visible" orient="auto">
   <path id="path9723" d="m0 0l5-5-17.5 5 17.5 5-5-5z" fill-rule="evenodd" transform="scale(.2) rotate(180) translate(6)" stroke="#f1f3f3" stroke-width="1pt" fill="#f1f3f3"/>
  </marker>
  <marker id="Arrow1Send" refY="0.0" refX="0.0" orient="auto" overflow="visible">
   <path id="path8424" d="m0 0l5-5-17.5 5 17.5 5-5-5z" fill-rule="evenodd" transform="scale(.2) rotate(180) translate(6)" stroke="#f1f3f3" stroke-width="1pt" fill="#f1f3f3"/>
  </marker>
 </defs>
 <metadata id="metadata102887">
  <rdf:RDF>
   <cc:Work rdf:about="">
    <dc:format>image/svg+xml</dc:format>
    <dc:type rdf:resource="http://purl.org/dc/dcmitype/StillImage"/>
    <dc:title/>
   </cc:Work>
  </rdf:RDF>
 </metadata>
 <g fill-rule="evenodd">
  <rect id="rect17721" style="color-rendering:auto;color:#000000;isolation:auto;mix-blend-mode:normal;shape-rendering:auto;solid-color:#000000;image-rendering:auto" height="300" width="800" y="0.05" x="-.039902" fill="#fff"/>
  <g id="g91120" transform="matrix(.92132 .3888 -.3888 .92132 -1664.6 -2506.6)">
   <path id="path91018" fill="#ffe537" d="m2676.9 1718.9c7.1662-5.8478 20.163 16.499 23.477 30.572-12.519-6.5253-29.768-25.438-23.477-30.572z"/>
   <path id="path91020" fill="#ffe537" d="m2720.9 1717.4c7.8613 4.8734-9.0402 24.434-21.27 32.147 2.0968-13.961 14.368-36.426 21.27-32.147z"/>
   <circle id="circle91022" style="color-rendering:auto;color:#000000;isolation:auto;mix-blend-mode:normal;shape-rendering:auto;solid-color:#000000;image-rendering:auto" cx="2700.7" transform="scale(1,-1)" cy="-1749.1" r="6.718" fill="#60a8ff"/>
   <g id="g24" fill="#ffabe1">
    <path id="path91006" d="m2668.4 1770.3c4.8656 7.8661 24.443-9.0161 32.168-21.238-13.963 2.083-36.44 14.332-32.168 21.238z"/>
    <path id="path91008" d="m2730.7 1771.3c5.6082-7.3551-17.155-19.608-31.33-22.456 6.9347 12.297 26.406 28.913 31.33 22.456z"/>
    <path id="path91010" d="m2700.6 1787.2c9.2485 0.1259 5.5376-25.457-0.6147-38.542-5.7499 12.894-7.5049 38.431 0.6147 38.542z"/>
   </g>
   <circle id="circle91012" style="color-rendering:auto;color:#000000;isolation:auto;mix-blend-mode:normal;shape-rendering:auto;solid-color:#000000;image-rendering:auto" cx="2700.7" cy="1749.1" r="6.718" fill="#60a8ff"/>
  </g>
  <g id="g91093" transform="matrix(.97645 -.21575 .21575 .97645 -2638.2 -927.25)">
   <g id="g31" fill="#ffe537">
    <path id="path90970" d="m2923 1748.5c2.5632-8.8871 25.969 2.0879 36.705 11.772-14.007 1.761-38.955-3.97-36.705-11.772z"/>
    <path id="path90972" d="m2993.8 1745.4c3.8721 8.3998-21.012 15.402-35.468 15.095 9.4458-10.492 32.068-22.47 35.468-15.095z"/>
    <path id="path90974" d="m2974.8 1725.7c8.525 3.5882-5.1201 25.544-15.997 35.07-0.1056-14.117 8.5127-38.22 15.997-35.07z"/>
    <path id="path90976" d="m2943 1725.8c8.2569-4.168 16.138 20.452 16.345 34.91-10.821-9.0673-23.594-31.25-16.345-34.91z"/>
   </g>
   <circle id="circle90978" style="color-rendering:auto;color:#000000;isolation:auto;mix-blend-mode:normal;shape-rendering:auto;solid-color:#000000;image-rendering:auto" cx="2959.8" transform="scale(1,-1)" cy="-1760.3" r="6.718" fill="#60a8ff"/>
   <path id="path90984" fill="#ffae0d" d="m2938.6 1710.6c15.869-6.8137 23.974 29.185 20.787 50.656-17.219-12.664-34.719-44.674-20.787-50.656z"/>
   <path id="path90986" fill="#ffe537" d="m2944.7 1725.3c8.4628-3.7324 15.051 21.265 14.505 35.713-10.334-9.6185-21.935-32.436-14.505-35.713z"/>
   <path id="path90990" fill="#ffae0d" d="m2909.8 1739.2c6.717-15.91 37.51 4.4223 50.093 22.109-21.19 2.805-55.99-8.1402-50.093-22.109z"/>
   <path id="path90992" fill="#ffe537" d="m2924.4 1745.6c3.5137-8.5559 25.588 4.8972 35.208 15.691-14.116 0.2287-38.293-8.1792-35.208-15.691z"/>
   <path id="path90996" fill="#ffae0d" d="m2982.7 1711.5c15.682 7.2332-5.6453 37.345-23.733 49.344-2.1114-21.27 9.9649-55.694 23.733-49.344z"/>
   <path id="path90998" fill="#ffe537" d="m2975.9 1725.8c8.4365 3.7913-5.7305 25.414-16.833 34.677 0.2326-14.116 9.4258-38.006 16.833-34.677z"/>
   <circle id="circle91000" style="color-rendering:auto;color:#000000;isolation:auto;mix-blend-mode:normal;shape-rendering:auto;solid-color:#000000;image-rendering:auto" cx="2959.8" transform="scale(1,-1)" cy="-1760.3" r="6.718" fill="#60a8ff"/>
   <path id="path90930" fill="#ff298f" d="m2895 1786.5c10.649 25.714 49.31-1.3317 64.087-26.955-28.433-7.4881-73.437 4.3795-64.087 26.955z"/>
   <path id="path90934" fill="#ff298f" d="m2930.5 1822.7c25.285 11.632 35.275-34.481 28.708-63.322-25.95 13.825-50.907 53.11-28.708 63.322z"/>
   <circle id="circle90936" style="color-rendering:auto;color:#000000;isolation:auto;mix-blend-mode:normal;shape-rendering:auto;solid-color:#000000;image-rendering:auto" cx="2959.8" cy="1760.3" r="6.718" fill="#60a8ff"/>
   <g id="g48" fill="#ff77bc">
    <path id="path90940" d="m3009.7 1781.7c7.0159-15.781-28.876-24.345-50.386-21.432 12.443 17.379 44.226 35.287 50.386 21.432z"/>
    <path id="path90942" d="m2980.5 1810.2c16.001-6.4979-3.9067-37.567-21.419-50.392-3.0958 21.149 7.3704 56.097 21.419 50.392z"/>
    <path id="path90944" d="m2937.1 1809.4c15.676 7.2482 24.769-28.514 22.174-50.064-17.561 12.185-35.936 43.7-22.174 50.064z"/>
    <path id="path90948" d="m2908.8 1779.3c6.0957 16.159 37.653-2.966 50.912-20.152-21.065-3.6237-56.263 5.9653-50.912 20.152z"/>
   </g>
   <circle id="circle90950" style="color-rendering:auto;color:#000000;isolation:auto;mix-blend-mode:normal;shape-rendering:auto;solid-color:#000000;image-rendering:auto" cx="2959.8" cy="1760.3" r="6.718" fill="#60a8ff"/>
   <g id="g55" fill="#ffabe1">
    <path id="path90956" d="m2923 1772.2c2.5632 8.8871 25.969-2.0879 36.705-11.772-14.007-1.761-38.955 3.9701-36.705 11.772z"/>
    <path id="path90958" d="m2993.8 1775.3c3.8721-8.3998-21.012-15.402-35.468-15.095 9.4459 10.492 32.068 22.47 35.468 15.095z"/>
    <path id="path90960" d="m2974.8 1795c8.525-3.5882-5.1201-25.544-15.997-35.07-0.1056 14.117 8.5128 38.22 15.997 35.07z"/>
    <path id="path90962" d="m2943 1794.9c8.2569 4.168 16.138-20.452 16.345-34.91-10.821 9.0674-23.594 31.25-16.345 34.91z"/>
   </g>
   <circle id="circle90964" style="color-rendering:auto;color:#000000;isolation:auto;mix-blend-mode:normal;shape-rendering:auto;solid-color:#000000;image-rendering:auto" cx="2959.8" cy="1760.3" r="6.718" fill="#60a8ff"/>
  </g>
  <g id="g91198" transform="translate(-2462.1 -2306.4)">
   <g id="g63" fill="#ffe537">
    <path id="path91145" d="m2791 2444.7c2.5632-8.887 25.969 2.0879 36.705 11.772-14.007 1.761-38.955-3.97-36.705-11.772z"/>
    <path id="path91147" d="m2861.8 2441.6c3.8722 8.3998-21.012 15.402-35.468 15.095 9.4458-10.492 32.068-22.47 35.468-15.095z"/>
    <path id="path91149" d="m2842.8 2422c8.5249 3.5881-5.1201 25.544-15.997 35.07-0.1055-14.117 8.5128-38.22 15.997-35.07z"/>
    <path id="path91151" d="m2811 2422.1c8.257-4.1679 16.138 20.452 16.345 34.91-10.821-9.0673-23.594-31.25-16.345-34.91z"/>
   </g>
   <circle id="circle91153" style="color-rendering:auto;color:#000000;isolation:auto;mix-blend-mode:normal;shape-rendering:auto;solid-color:#000000;image-rendering:auto" cx="2827.8" transform="scale(1,-1)" cy="-2456.6" r="6.718" fill="#60a8ff"/>
   <path id="path91159" fill="#ffae0d" d="m2777.5 2435.1c6.7679-15.889 37.495 4.5423 50.022 22.269-21.198 2.7372-55.964-8.3193-50.022-22.269z"/>
   <path id="path91161" fill="#ffe537" d="m2792.1 2441.5c3.541-8.5446 25.572 4.9791 35.158 15.804-14.116 0.1834-38.267-8.3017-35.158-15.804z"/>
   <circle id="circle91163" style="color-rendering:auto;color:#000000;isolation:auto;mix-blend-mode:normal;shape-rendering:auto;solid-color:#000000;image-rendering:auto" cx="2827.8" transform="scale(1,-1)" cy="-2456.6" r="6.718" fill="#60a8ff"/>
   <g id="g73" fill="#ffabe1">
    <path id="path91169" d="m2791 2468.4c2.5632 8.8871 25.969-2.0879 36.705-11.772-14.007-1.761-38.955 3.9701-36.705 11.772z"/>
    <path id="path91171" d="m2861.8 2471.6c3.8721-8.3998-21.012-15.402-35.468-15.095 9.4459 10.492 32.068 22.47 35.468 15.095z"/>
    <path id="path91173" d="m2842.8 2491.2c8.525-3.5882-5.1201-25.544-15.997-35.07-0.1056 14.117 8.5127 38.22 15.997 35.07z"/>
    <path id="path91175" d="m2811 2491.1c8.2569 4.168 16.138-20.452 16.345-34.91-10.821 9.0674-23.594 31.25-16.345 34.91z"/>
   </g>
   <circle id="circle91177" style="color-rendering:auto;color:#000000;isolation:auto;mix-blend-mode:normal;shape-rendering:auto;solid-color:#000000;image-rendering:auto" cx="2827.8" cy="2456.6" r="6.718" fill="#60a8ff"/>
  </g>
 </g>
 <g id="g80" font-weight="bold" font-family="&apos;Comic Sans MS&apos;" transform="translate(-2309.1 -2603.4)">
  <text id="text91213" style="word-spacing:0px;letter-spacing:0px" transform="rotate(-11.148)" xml:space="preserve" font-size="74.912px" y="3104.9238" x="1873.2316" line-height="125%" fill="#f7ad19"><tspan id="tspan91215" y="3104.9238" x="1873.2316">2</tspan></text>
  <text id="text91217" style="word-spacing:0px;letter-spacing:0px" transform="matrix(.97354 .22850 -.22850 .97354 0 0)" xml:space="preserve" font-size="61.046px" y="2242.2437" x="2986.2437" line-height="125%" fill="#eb2f9c"><tspan id="tspan91219" y="2242.2437" x="2986.2437">3</tspan></text>
  <text id="text91221" style="word-spacing:0px;letter-spacing:0px" transform="rotate(16.696)" xml:space="preserve" font-size="54.89px" y="1802.3678" x="3307.6982" line-height="125%" fill="#f7ad19"><tspan id="tspan91223" y="1802.3678" x="3307.6982">5</tspan></text>
  <text id="text91225" style="word-spacing:0px;letter-spacing:0px" transform="rotate(-21.46)" xml:space="preserve" font-size="68.564px" y="3655.416" x="1418.5302" line-height="125%" fill="#eb2f9c"><tspan id="tspan91227" y="3655.416" x="1418.5302">4</tspan></text>
  <text id="text91229" style="word-spacing:0px;letter-spacing:0px" transform="rotate(-9.1959)" xml:space="preserve" font-size="63.615px" y="3111.123" x="2411.6292" line-height="125%" fill="#f7ad19"><tspan id="tspan91231" y="3111.123" x="2411.6292">7</tspan></text>
  <text id="text91233" style="word-spacing:0px;letter-spacing:0px" transform="rotate(-5.1902)" xml:space="preserve" font-size="75.309px" y="3141.4265" x="2705.9143" line-height="125%" fill="#eb2f9c"><tspan id="tspan91235" y="3141.4265" x="2705.9143">10</tspan></text>
 </g>
 <g stroke="#f1f3f3" stroke-width="5" fill="none">
  <path id="path91237" marker-end="url(#marker9985)" d="m182.86 70.95c26.061 19.831 4.879 42.341-8 52"/>
  <path id="path91239" marker-end="url(#marker9855)" d="m137.86 249.95c29.423-4.8893 27.788-34.029 21-51"/>
  <path id="path91241" marker-end="url(#marker9731)" d="m326.86 243.95c-49.454-8.7444-39.214-43.043-5-61.5"/>
  <path id="path91243" marker-end="url(#marker9721)" d="m389.86 63.95c25.465 7.1096 15.134 39.4 1 50"/>
  <path id="path91245" marker-end="url(#Arrow1Send)" d="m563.86 66.95c-65.551 11.631-49.307 53.123-14 63"/>
  <path id="path91247" marker-end="url(#marker10121)" d="m656.86 267.95c-33.886 11.446-48.102-2.5281-44.686-32.828"/>
 </g>
</svg>
