<?xml version="1.0" encoding="UTF-8" standalone="no"?>
<!-- Created with Inkscape (http://www.inkscape.org/) -->
<svg id="svg33057" xmlns:rdf="http://www.w3.org/1999/02/22-rdf-syntax-ns#" xmlns="http://www.w3.org/2000/svg" height="84.667mm" viewBox="0 0 799.99998 299.99999" width="225.78mm" version="1.1" xmlns:cc="http://creativecommons.org/ns#" xmlns:dc="http://purl.org/dc/elements/1.1/">
 <metadata id="metadata33062">
  <rdf:RDF>
   <cc:Work rdf:about="">
    <dc:format>image/svg+xml</dc:format>
    <dc:type rdf:resource="http://purl.org/dc/dcmitype/StillImage"/>
    <dc:title/>
   </cc:Work>
  </rdf:RDF>
 </metadata>
 <rect id="rect15894" style="color-rendering:auto;color:#000000;isolation:auto;mix-blend-mode:normal;shape-rendering:auto;solid-color:#000000;image-rendering:auto" fill-rule="evenodd" height="300" width="800" y=".069902" x=".003" fill="#fff"/>
 <g id="g16201" transform="translate(-306 -2834.3)">
  <path id="path16138" stroke="#b3f1c0" stroke-width="7.4" fill="none" d="m1071 2883.9c-20.166-7.1067-63.004-2.1653-83 4.5-72.803 24.268-12.668 106-62 143-48.768 36.576-141.77 30.29-153.03 86.551"/>
  <g id="g16140" transform="matrix(.66629 -.91076 .91076 .66629 -2728 2475.8)" fill-rule="evenodd">
   <g id="g112817" fill="#ffe537">
    <path id="path16142" d="m1503.1 2882c4.8656-7.8661 24.443 9.0161 32.168 21.238-13.963-2.083-36.44-14.332-32.168-21.238z"/>
    <path id="path16144" d="m1565.4 2880.9c5.6083 7.3551-17.155 19.608-31.33 22.456 6.9347-12.297 26.406-28.913 31.33-22.456z"/>
    <path id="path16146" d="m1535.3 2865c9.2485-0.1259 5.5376 25.457-0.6148 38.542-5.7498-12.894-7.5048-38.431 0.6148-38.542z"/>
   </g>
   <circle id="circle16148" style="color-rendering:auto;color:#000000;isolation:auto;mix-blend-mode:normal;shape-rendering:auto;solid-color:#000000;image-rendering:auto" cx="1535.4" transform="scale(1,-1)" cy="-2903.1" r="6.718" fill="#60a8ff"/>
   <g id="g112823" fill="#ffabe1">
    <path id="path16150" d="m1503.1 2924.2c4.8657 7.8661 24.443-9.0161 32.168-21.238-13.963 2.083-36.44 14.332-32.168 21.238z"/>
    <path id="path16152" d="m1565.4 2925.3c5.6082-7.3551-17.155-19.608-31.33-22.456 6.9347 12.297 26.406 28.913 31.33 22.456z"/>
    <path id="path16154" d="m1535.3 2941.2c9.2484 0.1259 5.5375-25.457-0.6148-38.542-5.7499 12.894-7.5049 38.431 0.6148 38.542z"/>
   </g>
   <circle id="circle16156" style="color-rendering:auto;color:#000000;isolation:auto;mix-blend-mode:normal;shape-rendering:auto;solid-color:#000000;image-rendering:auto" cx="1535.4" cy="2903.1" r="6.718" fill="#60a8ff"/>
  </g>
  <g id="g16169" transform="matrix(.33625 -.33747 .33747 .33625 -306.63 2303.9)">
   <circle id="circle16171" style="color-rendering:auto;color:#000000;isolation:auto;mix-blend-mode:normal;shape-rendering:auto;solid-color:#000000;image-rendering:auto" fill-rule="evenodd" cx="973.69" cy="2781.2" r="42.426" fill="#e4cbec"/>
   <text id="text16173" style="word-spacing:0px;letter-spacing:0px" font-weight="bold" xml:space="preserve" font-size="68.937px" transform="rotate(-4.4488)" line-height="125%" y="2874.4907" x="736.84558" font-family="&apos;Comic Sans MS&apos;" fill="#cb95d8"><tspan id="tspan16175" y="2874.4907" x="736.84558">?</tspan></text>
  </g>
  <g id="g16177" transform="matrix(.41336 -.23682 .23682 .41336 -30.982 1959.7)">
   <circle id="circle16179" style="color-rendering:auto;color:#000000;isolation:auto;mix-blend-mode:normal;shape-rendering:auto;solid-color:#000000;image-rendering:auto" fill-rule="evenodd" cx="973.69" cy="2781.2" r="42.426" fill="#e4cbec"/>
   <text id="text16181" style="word-spacing:0px;letter-spacing:0px" font-weight="bold" xml:space="preserve" font-size="68.937px" transform="rotate(-4.4488)" line-height="125%" y="2874.4907" x="736.84558" font-family="&apos;Comic Sans MS&apos;" fill="#cb95d8"><tspan id="tspan16183" y="2874.4907" x="736.84558">?</tspan></text>
  </g>
  <g id="g16185" transform="matrix(.4309 -.20316 .20316 .4309 -110.1 2053.7)">
   <circle id="circle16187" style="color-rendering:auto;color:#000000;isolation:auto;mix-blend-mode:normal;shape-rendering:auto;solid-color:#000000;image-rendering:auto" fill-rule="evenodd" cx="973.69" cy="2781.2" r="42.426" fill="#e4cbec"/>
   <text id="text16189" style="word-spacing:0px;letter-spacing:0px" font-weight="bold" xml:space="preserve" font-size="68.937px" transform="rotate(-4.4488)" line-height="125%" y="2874.4907" x="736.84558" font-family="&apos;Comic Sans MS&apos;" fill="#cb95d8"><tspan id="tspan16191" y="2874.4907" x="736.84558">?</tspan></text>
  </g>
  <g id="g16193" transform="matrix(.30381 -.36695 .36695 .30381 -512.84 2590.2)">
   <circle id="circle16195" style="color-rendering:auto;color:#000000;isolation:auto;mix-blend-mode:normal;shape-rendering:auto;solid-color:#000000;image-rendering:auto" fill-rule="evenodd" cx="973.69" cy="2781.2" r="42.426" fill="#e4cbec"/>
   <text id="text16197" style="word-spacing:0px;letter-spacing:0px" font-weight="bold" xml:space="preserve" font-size="68.937px" transform="rotate(-4.4488)" line-height="125%" y="2874.4907" x="736.84558" font-family="&apos;Comic Sans MS&apos;" fill="#cb95d8"><tspan id="tspan16199" y="2874.4907" x="736.84558">?</tspan></text>
  </g>
 </g>
 <g id="g17587" transform="translate(-306 -2834.3)" fill-rule="evenodd">
  <g id="g16106" transform="matrix(1.9093,0,0,1.9093,-2491.9,-2616.1)">
   <g id="g112847" fill="#ffe537">
    <path id="path15920" d="m1503.1 2882c4.8656-7.8661 24.443 9.0161 32.168 21.238-13.963-2.083-36.44-14.332-32.168-21.238z"/>
    <path id="path15922" d="m1565.4 2880.9c5.6083 7.3551-17.155 19.608-31.33 22.456 6.9347-12.297 26.406-28.913 31.33-22.456z"/>
    <path id="path15924" d="m1535.3 2865c9.2485-0.1259 5.5376 25.457-0.6148 38.542-5.7498-12.894-7.5048-38.431 0.6148-38.542z"/>
   </g>
   <circle id="circle15926" style="color-rendering:auto;color:#000000;isolation:auto;mix-blend-mode:normal;shape-rendering:auto;solid-color:#000000;image-rendering:auto" cx="1535.4" transform="scale(1,-1)" cy="-2903.1" r="6.718" fill="#60a8ff"/>
   <g id="g112853" fill="#ffabe1">
    <path id="path15958" d="m1503.1 2924.2c4.8657 7.8661 24.443-9.0161 32.168-21.238-13.963 2.083-36.44 14.332-32.168 21.238z"/>
    <path id="path15960" d="m1565.4 2925.3c5.6082-7.3551-17.155-19.608-31.33-22.456 6.9347 12.297 26.406 28.913 31.33 22.456z"/>
    <path id="path15962" d="m1535.3 2941.2c9.2484 0.1259 5.5375-25.457-0.6148-38.542-5.7499 12.894-7.5049 38.431 0.6148 38.542z"/>
   </g>
   <circle id="circle15964" style="color-rendering:auto;color:#000000;isolation:auto;mix-blend-mode:normal;shape-rendering:auto;solid-color:#000000;image-rendering:auto" cx="1535.4" cy="2903.1" r="6.718" fill="#60a8ff"/>
  </g>
  <g id="g16095" transform="translate(-1306.7,159.29)">
   <g id="g112860" fill="#ffe537">
    <path id="path15932" d="m1655.8 2882c4.8656-7.8661 24.443 9.0161 32.168 21.238-13.963-2.083-36.44-14.332-32.168-21.238z"/>
    <path id="path15934" d="m1718.1 2880.9c5.6083 7.3551-17.154 19.608-31.33 22.456 6.9347-12.297 26.406-28.913 31.33-22.456z"/>
    <path id="path15936" d="m1688 2865c9.2485-0.1259 5.5376 25.457-0.6148 38.542-5.7498-12.894-7.5048-38.431 0.6148-38.542z"/>
   </g>
   <circle id="circle15938" style="color-rendering:auto;color:#000000;isolation:auto;mix-blend-mode:normal;shape-rendering:auto;solid-color:#000000;image-rendering:auto" cx="1688.1" transform="scale(1,-1)" cy="-2903.1" r="6.718" fill="#60a8ff"/>
   <g id="g112866" fill="#ffabe1">
    <path id="path15970" d="m1651.3 2914.9c2.5632 8.8871 25.969-2.0879 36.705-11.772-14.007-1.761-38.955 3.9701-36.705 11.772z"/>
    <path id="path15972" d="m1722.2 2918.1c3.8721-8.3998-21.012-15.402-35.468-15.095 9.4458 10.492 32.068 22.47 35.468 15.095z"/>
    <path id="path15974" d="m1703.1 2937.7c8.525-3.5882-5.1201-25.544-15.997-35.07-0.1056 14.117 8.5128 38.22 15.997 35.07z"/>
    <path id="path15976" d="m1671.3 2937.6c8.2569 4.168 16.138-20.452 16.345-34.91-10.821 9.0674-23.594 31.25-16.345 34.91z"/>
   </g>
   <circle id="circle15978" style="color-rendering:auto;color:#000000;isolation:auto;mix-blend-mode:normal;shape-rendering:auto;solid-color:#000000;image-rendering:auto" cx="1688.1" cy="2903.1" r="6.718" fill="#60a8ff"/>
  </g>
  <g id="g16125" transform="translate(-916.87,-63.858)">
   <g id="g112874" fill="#ffe537">
    <path id="path15944" d="m1498.6 3044c2.5632-8.8871 25.969 2.0879 36.705 11.772-14.007 1.761-38.955-3.9701-36.705-11.772z"/>
    <path id="path15946" d="m1569.5 3040.8c3.8722 8.3998-21.012 15.402-35.468 15.095 9.4458-10.492 32.068-22.47 35.468-15.095z"/>
    <path id="path15948" d="m1550.4 3021.2c8.525 3.5882-5.1201 25.544-15.997 35.07-0.1055-14.117 8.5128-38.22 15.997-35.07z"/>
    <path id="path15950" d="m1518.6 3021.3c8.257-4.168 16.138 20.452 16.345 34.91-10.821-9.0674-23.594-31.25-16.345-34.91z"/>
   </g>
   <circle id="circle15952" style="color-rendering:auto;color:#000000;isolation:auto;mix-blend-mode:normal;shape-rendering:auto;solid-color:#000000;image-rendering:auto" cx="1535.4" transform="scale(1,-1)" cy="-3055.8" r="6.718" fill="#60a8ff"/>
   <g id="g112881" fill="#ffabe1">
    <path id="path15984" d="m1503.1 3076.9c4.8657 7.8661 24.443-9.0161 32.168-21.238-13.963 2.083-36.44 14.332-32.168 21.238z"/>
    <path id="path15986" d="m1565.4 3078c5.6082-7.3551-17.155-19.608-31.33-22.456 6.9347 12.297 26.406 28.913 31.33 22.456z"/>
    <path id="path15988" d="m1535.3 3093.9c9.2484 0.1259 5.5375-25.457-0.6148-38.542-5.7499 12.894-7.5049 38.431 0.6148 38.542z"/>
   </g>
   <circle id="circle15990" style="color-rendering:auto;color:#000000;isolation:auto;mix-blend-mode:normal;shape-rendering:auto;solid-color:#000000;image-rendering:auto" cx="1535.4" cy="3055.8" r="6.718" fill="#60a8ff"/>
  </g>
  <g id="g16116" transform="translate(-863.94,155.68)">
   <g id="g112888" fill="#ffe537">
    <path id="path16006" d="m1350.4 2882c4.8656-7.8661 24.443 9.0161 32.168 21.238-13.963-2.083-36.44-14.332-32.168-21.238z"/>
    <path id="path16008" d="m1412.7 2880.9c5.6083 7.3551-17.155 19.608-31.33 22.456 6.9347-12.297 26.406-28.913 31.33-22.456z"/>
    <path id="path16010" d="m1382.6 2865c9.2485-0.1259 5.5376 25.457-0.6148 38.542-5.7498-12.894-7.5048-38.431 0.6148-38.542z"/>
   </g>
   <circle id="circle16012" style="color-rendering:auto;color:#000000;isolation:auto;mix-blend-mode:normal;shape-rendering:auto;solid-color:#000000;image-rendering:auto" cx="1382.7" transform="scale(1,-1)" cy="-2903.1" r="6.718" fill="#60a8ff"/>
   <path id="path16018" d="m1358.9 2933.4c7.1661 5.8478 20.162-16.499 23.477-30.572-12.519 6.5253-29.768 25.438-23.477 30.572z" fill="#ffabe1"/>
   <path id="path16020" d="m1402.8 2934.8c7.8612-4.8734-9.0402-24.434-21.27-32.147 2.0968 13.961 14.368 36.426 21.27 32.147z" fill="#ffabe1"/>
   <circle id="circle16022" style="color-rendering:auto;color:#000000;isolation:auto;mix-blend-mode:normal;shape-rendering:auto;solid-color:#000000;image-rendering:auto" cx="1382.7" cy="2903.1" r="6.718" fill="#60a8ff"/>
  </g>
  <g id="g16086" transform="translate(-930,140)">
   <path id="path15996" d="m1511.6 2720.1c7.1662-5.8478 20.163 16.499 23.477 30.572-12.519-6.5253-29.768-25.438-23.477-30.572z" fill="#ffe537"/>
   <path id="path15998" d="m1555.6 2718.6c7.8613 4.8734-9.0402 24.434-21.27 32.147 2.0968-13.961 14.368-36.426 21.27-32.147z" fill="#ffe537"/>
   <circle id="circle16000" style="color-rendering:auto;color:#000000;isolation:auto;mix-blend-mode:normal;shape-rendering:auto;solid-color:#000000;image-rendering:auto" cx="1535.4" transform="scale(1,-1)" cy="-2750.4" r="6.718" fill="#60a8ff"/>
   <g id="g112901" fill="#ffabe1">
    <path id="path16028" d="m1503.1 2771.5c4.8657 7.8661 24.443-9.0161 32.168-21.238-13.963 2.083-36.44 14.332-32.168 21.238z"/>
    <path id="path16030" d="m1565.4 2772.6c5.6082-7.3551-17.155-19.608-31.33-22.456 6.9347 12.297 26.406 28.913 31.33 22.456z"/>
    <path id="path16032" d="m1535.3 2788.4c9.2484 0.1259 5.5375-25.457-0.6148-38.542-5.7499 12.894-7.5049 38.431 0.6148 38.542z"/>
   </g>
   <circle id="circle16034" style="color-rendering:auto;color:#000000;isolation:auto;mix-blend-mode:normal;shape-rendering:auto;solid-color:#000000;image-rendering:auto" cx="1535.4" cy="2750.4" r="6.718" fill="#60a8ff"/>
  </g>
  <g id="g112907" stroke-linejoin="round" stroke="#fa486c" stroke-linecap="round" stroke-width="7" fill="#f8778f">
   <path id="path16450" d="m540.43 2891.6c-6.0324-2.29-8.8426-6.3471-10.916-11.098-2.7864-6.3852 5.1388-11.109 11.223-2.5622 5.4732-7.6645 12.756-2.5492 10.22 2.9549-2.1162 4.5935-5.3352 7.5616-10.527 10.705z"/>
   <path id="path16677" d="m542.69 2966.2c-5.099-3.9541-6.5998-8.6556-7.1929-13.805-0.79725-6.921 8.1629-9.1203 11.481 0.8319 7.4754-5.7287 12.944 1.2928 8.9092 5.8147-3.3671 3.7737-7.3133 5.6707-13.198 7.158z"/>
   <path id="path16679" d="m500.03 3009.7c-6.3815 0.9541-10.817-1.2094-14.949-4.3382-5.5542-4.2056-0.95317-12.203 8.5344-7.7253 1.0237-9.3623 9.8779-8.464 10.359-2.4231 0.40163 5.0415-0.95359 9.205-3.9442 14.487z"/>
   <path id="path16681" d="m402.67 3013.6c-6.2728-1.512-9.5716-5.1829-12.226-9.6343-3.5685-5.9835 3.6987-11.668 10.811-3.9553 4.4643-8.2928 12.333-4.1354 10.511 1.6442-1.5209 4.8233-4.3403 8.1733-9.0954 11.945z"/>
  </g>
 </g>
 <path id="path117575" d="m455.93-1.1224-95.22 303.64" stroke="#f1f3f3" stroke-width="7" fill="none"/>
</svg>
